<svg xmlns="http://www.w3.org/2000/svg" viewBox="155 159 1275 479"><g fill="none" stroke-width="2"><path stroke="#808381" d="M1339.41 235.9v-51.19a.34.33-90 0 0-.33-.34h-24.29a.62.61 90 0 0-.61.62v136.23a.46.46 0 0 0 .46.46h24.63a.22.22 0 0 0 .22-.22q-.02-12.02-.05-49.63c-.01-6.6.73-10.29 3.75-15.66 4.67-8.32 14.55-11.22 23.41-9.03 7.79 1.92 13.18 8.43 13.24 16.11q.19 28.83-.06 57.91a.46.45.6 0 0 .46.46h24.48a.66.66 0 0 0 .66-.66q-.22-28-.09-59.3c.01-3.56-.34-6.5-.67-10.63-1.98-25.04-25.49-33.45-47.09-27.2-7.61 2.2-12.56 6.4-17.28 12.36a.47.47 0 0 1-.84-.29M819.26 218.68q-4.3-18.76-20.66-26.82-22.51-11.1-47.53-2.31c-14.99 5.26-26.05 19.08-25.42 35.49q.84 22.26 20.92 31.38c10.37 4.72 22.66 6.8 31.62 9.66 7.95 2.53 17.03 6.55 16.31 16.54q-.62 8.74-8.8 13.06-4.35 2.31-6.23 2.52c-12.46 1.43-23.92-1.18-30.59-12.76q-.54-.95-.71-2.44a1.59 1.59 0 0 0-1.89-1.38l-21.14 4.16a1.33 1.33 0 0 0-1.07 1.27c-.13 4.79-.69 8.15 1.69 12.2 9.78 16.62 27.12 23.31 46.23 23.42 19.99.11 39.02-8.23 47.09-27.09 4.16-9.71 3.35-22.16-1.74-31.29-9.09-16.31-29.87-20.26-46.36-24.53-8.24-2.14-17.15-5.43-18-14.61-.75-8.12 3.87-14.28 11.8-15.56 11.44-1.84 23.58-.53 27.97 11.9q.28.77.21 2.12a.79.79 0 0 0 .94.81l24.81-4.89a.71.7 78.1 0 0 .55-.85" vector-effect="non-scaling-stroke"/><path stroke="#b4cfa4" d="m346.3 582.24 67.78.06" vector-effect="non-scaling-stroke"/><path stroke="#f6f5e3" d="m414.08 582.3 91.55-.15" vector-effect="non-scaling-stroke"/><path stroke="#80a295" d="m505.63 582.15 1.31-.23a.89.86-38.3 0 1 .5.05c3.01 1.29 7.2.92 8.28-2.84q1.9-6.66 2.56-12.62c1.65-14.93 3.6-32.16 2.05-48.64q-.98-10.4-2.59-24.1a.42.42 0 0 1 .51-.46q23.77 5.48 48 1.15c9.29-1.66 15.56-2.68 21.93-4.37q6.52-1.74 13.11.4a.59.58 16.3 0 1 .39.7q-11.28 42.18-20.63 76.26c-1.32 4.84-2.79 8.58-3.41 13.05q-.48 3.48 2.23 4.3 14.66 4.45 38.16 11.15 1.62.46 4.21.22a3.48 3.47-84.9 0 0 3.03-2.54l28.58-103.52a2.24 2.23-2.1 0 1 1.41-1.51q8.23-2.91 12.53-9.7 2.43-3.84.35-9.91a.64.63 57.4 0 1 .14-.65q5.19-5.33 5.43-10.92.36-8.53-8.1-11.36a.65.65 0 0 1-.42-.78q6.23-23.52 18.12-66.47 1-3.6-1.23-5.41-.39-.32-5.67-1.73-18.6-4.96-22.98-6c-3.9-.93-7.73-2.65-12.03-2.59-2.32.03-3.72.48-4.34 2.74q-1.46 5.35-15.49 56.06a.79.79 0 0 1-.72.58q-7.06.32-12.83 4.34-8.14 5.66-14.6 12.97a2.28 2.27-66.7 0 1-1.9.76q-13.25-1.15-38.52-2.25c-3.35-.15-7.42-1.03-9.62-2.9q-21.1-17.96-26.74-22.52-14.82-11.96-32.71-17.73a2.91 2.88-8.8 0 1-1.44-1.04l-6.44-8.62a.86.86 0 0 1 .17-1.19q7.66-5.83 15.33-9.97 5.75-3.11 9.98-3.37 22.55-1.39 41.6-3.95 11.32-1.53 16.12-2.57 8.89-1.93 15.33-5.26 8.71-4.5 10.72-14.74a.51.51 0 0 1 .45-.41q14.03-1.64 22.81-11.32c8.23-9.07 10.42-21.55 7-33.44q-1.96-6.83-7.41-10.35c-7.99-5.18-15.08-4.55-23.16-1.28q-2.41.98-6.78 3.65a1.03 1.01 39.7 0 1-.95.08c-3.94-1.67-6.52-3.05-9.68-3.39q-6.74-.73-12.24 1.63-5.24 2.25-5.59 2.32a5.94 5.88-47.1 0 1-1.93.08l-50.18-6.23a2.12 2.12 0 0 1-1.85-1.86q-1.17-10.07-4.21-17.91a.96.95-20.4 0 1 .57-1.24q19.09-6.92 28.58-10.53 8.39-3.2 15.01-7.48c3.9-2.53 6.48-6.44 2.97-10.74-2.78-3.4-9.94-4.6-13.98-4.94q-23.09-1.95-49.71-1.54a1.49 1.48 76.1 0 1-1.36-.83q-7.3-14.93-16.54-28.28-5.56-8.04-10.21-10.35-6.64-3.3-14.73-.59-6.97 2.34-11.56 3.97a8.83 8.8-52.1 0 1-3.72.47q-12.08-1.07-20.65-1.46c-8.57-.4-19.37.8-26.42 5.76-8.26 5.82-12.97 14.37-15.16 23.77-2.41 10.35-4.51 17.45-4.77 27.76-.12 4.56-.34 6.36-4.77 7.9q-15.29 5.3-29.74 13.51-4.93 2.8-8.51 6c-3.02 2.68-3.66 7.83-.81 10.98 4.47 4.95 12.24 5.79 18.77 6.99q8.01 1.48 15.07 1.27a.4.4 0 0 1 .38.55c-1.09 2.7-1.7 4.25-4.23 6.33-5.24 4.32-7.95 8.77-7.32 15.72.26 2.91 2.34 4.14 4.99 4.93a1.26 1.26 0 0 1 .88 1.13q.21 3.63-1.1 5.51c-4.88 7.02-9.83 15.96-1.93 22.05a.91.75-5.7 0 0 .18.12l5.78 2.75a1.19 1.16-84.3 0 1 .63.79l1.23 5.3a1.39 1.38 57.8 0 1-.26 1.17c-3.8 4.89-7.73 10.17-7.59 16.53a.56.55-4 0 1-.49.56l-12.51 1.63a.63.62 86.5 0 1-.71-.63q.04-17.19.04-32.07c0-4.29-2.02-6.56-4.12-9.29q-5.78-7.48-18.44-24.83-2.33-3.19-3.76-3.61c-3.33-.98-5.6 3.12-7.27 5.93q-.89 1.5-2.78 3.93-10.84 13.97-16.47 22.39-1.47 2.19-1.37 4.24.69 14.84.35 31.94a.49.49 0 0 1-.5.48l-10.23-.3a.58.58 0 0 1-.57-.58q.17-23.05.03-30.31-.05-2.88-1.32-4.65-11.81-16.58-20.16-29.83c-1.72-2.71-4.38-5.56-7.8-3.64a2.62 2.58 6.2 0 0-.67.53c-1.83 2-3.33 5.15-5.09 7.42q-9.14 11.79-17.56 23.81-1.53 2.19-1.54 4.27-.12 23.93-.02 32.48a.49.48 88.8 0 1-.46.49q-6.79.27-12.86-.24-3.92-.33-3.9 3.44.06 13.37.04 26.9 0 4.42 4.56 4.13 1.11-.07 12.1.01a.75.75 0 0 1 .74.75v87.13a.43.42-.7 0 1-.42.42c-4.8.14-9.39 1.23-14.1.62a1.47 1.44 33.1 0 0-.86.17c-2.31 1.3-2.27 4.65-2.33 7.31q-.21 9.47-.21 24.71c0 2.9.79 3.82 3.61 3.85q5.73.07 13.5-.14a.58.58 0 0 1 .59.58v39.81a3.47 3.47 0 0 0 4.25 3.38l.42-.1a5.52 5.52 0 0 0 4.27-5.38q0-200.1.03-224.48 0-3.15.52-5.72a1.16 1 72.9 0 1 .18-.41l16.93-23.31a.54.54 0 0 1 .87 0l17.39 24.2a1.53 1.51 27.4 0 1 .29.89v230.52a3.79 3.79 0 0 0 3.68 3.79l.68.02a4.16 4.16 0 0 0 4.28-4.16v-39.99a.42.41.7 0 1 .43-.41l10.45.3a.74.74 0 0 1 .72.74v39.95a3.74 3.73-1.3 0 0 3.91 3.73l.54-.02a4.35 4.34-1.2 0 0 4.15-4.33l.34-229.91a.76.7-34.6 0 1 .07-.31q.7-1.53 1.99-3.35 7.06-10.01 15.4-21.09a.5.5 0 0 1 .8 0l18.23 24.44a.42.38-65.1 0 1 .07.23q.15 33.21.07 62.82c0 1.33.34 3.61.48 5.22a2.08 2.07 65.4 0 1-.62 1.68q-8.49 8.28-15.75 15.4-10.98 10.78-16.7 25.5-2.54 6.54-1.42 14.81.86 6.38 6.04 13.49 7.27 9.97 15.16 16.32 4.54 3.64 11.35 8.24a1.16 1.14-73.4 0 1 .51.96v65.58a4.23 4.22-87.2 0 0 3.81 4.21l.62.06a3.84 3.84 0 0 0 4.21-3.82v-39.35a.29.28 11.6 0 1 .4-.26l.45.19a.05.03-80.8 0 1 .02.04c.51 9.92 8.88 15.59 17.83 17.3a1.25 1.24-83.5 0 1 1.01 1.27l-.6 21.04a1.06.96 42.1 0 0 .02.2c1.05 4.39 5.95 3.49 9.93 3.04" vector-effect="non-scaling-stroke"/><path stroke="#779879" d="M505.63 582.15q2.75-11.14 3.57-22.54a.3.3 0 0 0-.42-.3q-13.15 5.81-25.31 7.83c-20.92 3.49-44.7 2.15-64.9-6.01a1.07 1.06-52.2 0 1-.23-1.84l.98-.74a1.22 1.21 29.8 0 1 .85-.23c2.79.29 6.19 1.53 9.19 2.06q21.62 3.84 39.39 2.72 16.53-1.04 32.61-6.51 2.63-.89 6.89-2.81a2.94 2.94 0 0 0 1.73-2.41q1.51-15.89.73-32.42a.58.58 0 0 0-.85-.48q-7.89 4.26-15.74 6.42c-17.11 4.71-35.68 5-52.56 1.98q-10.96-1.96-14.13-2.8-3.2-.84-5.22-2.19a1.08 1.08 0 0 1 .02-1.81q.52-.33.77-.29c28.85 5.38 59.33 6.28 86.26-7.11a1.49 1.47-15.7 0 0 .82-1.44q-1.2-16.88-5.16-34.44a.46.45 72.2 0 0-.62-.32q-7.64 3.18-10.01 4.07c-20.93 7.89-42.85 8.03-64.74 3.71-2.7-.54-5.5-1.5-8.27-2.27" vector-effect="non-scaling-stroke"/><path stroke="#357239" d="M421.28 481.98q-.08-.71.15-1.44" vector-effect="non-scaling-stroke"/><path stroke="#779879" d="M421.43 480.54q1.38-1.59 2.83-1.33c25.9 4.61 54.31 4.01 78.21-8.54a1.14 1.14 0 0 0 .59-1.28q-3.25-13.59-9.46-28.72-.83-2.03-1.44-2.94a.71.7-27 0 0-.84-.27q-3.36 1.27-6.35 2.56c-17.91 7.72-41.02 8.26-60.28 4.8q-3.03-.55-5.33-1.98a1.02 1.01-35.9 0 1 .3-1.85l1.85-.44a1.58 1.53 41.4 0 1 .63-.03c15.79 2.24 32.67 2.07 48.66-1.49q9.98-2.21 17.95-7.32a1.04 1.03 60.9 0 0 .37-1.32q-6.27-12.86-14.34-25.44a.88.87-27.5 0 0-1.05-.33q-27.68 10.88-57.98 3.74a3.96 3.89-11.3 0 1-2.25-1.47l-.7-.94a1.07 1.07 0 0 1 1.05-1.69q16.3 3.07 31.42 1.78 13.77-1.18 26.05-7.14a.59.59 0 0 0 .28-.78q-3.32-7.06-5.99-13.47-1.63-3.93-1.78-8.17a.43.43 0 0 0-.55-.4q-18.13 5.23-36.79 4.49-13.34-.54-26.18-5.92" vector-effect="non-scaling-stroke"/><path stroke="#357239" d="M400.31 374.65q-6.56-3.13-9.97-5.48c-5.37-3.69-11.81-11.42-12.55-18.45a.69.69 0 0 1 1.07-.65q.74.48 1.51.14" vector-effect="non-scaling-stroke"/><path stroke="#779879" d="M380.37 350.21q.41 1.65 1.12 2.57c9.16 11.95 21.16 17.09 35.88 19.57 18.32 3.08 38-1.25 55.8-6.69q5.25-1.61 11.26-2.22 18.78-1.89 28.73-2.56c16.03-1.07 30.76-2.87 42.02-5q4.2-.79 12.4-3.3 6.24-1.91 9.92-7.01a.44.43 16.2 0 0-.38-.69c-8.74.57-17.07-.49-25.86-.91-3.3-.16-7.83 1.79-10.48 2.35q-6.62 1.42-13.21 3.02-1.94.47-3.58.39-10.73-.57-22.77-2.47-7-1.11-12.19-2.71-7.02-2.16-12.71-2.47a.63.63 0 0 0-.63.45c-1.1 3.77-2.12 10.54-6.35 9.5a2.6 2.57-20.5 0 1-.78-.35q-5.34-3.6-10.31-9.13a.97.97 0 0 0-.92-.31c-12.2 2.5-21.71 3.45-33.29 1.19q-14.44-2.82-24.5-12.54c-2.38-2.29-6.2-6.42-6.27-10.24a.84.84 0 0 0-1.38-.62l-12.5 10.82" vector-effect="non-scaling-stroke"/><path stroke="#357239" d="M379.39 330.85q-2.2-.79-2.25-2.05-.12-2.73 1.49-5.66c4.81-8.74 15.34-13.18 25.04-10.72q2.15.55 5.93 4.5a.37.37 0 0 1-.27.63q-.1 0-1.46-1.15a1.1 1.07 58.3 0 0-.92-.23l-8.69 1.71a.55.55 0 0 0-.33.88q8.02 10.15 19.15 14.83c11.48 4.83 26.07 4.4 38.28 1.3 8.81-2.24 21.42-2.66 31.33.38 8.04 2.47 18.7 4.98 29.56 6.19 9.08 1.02 17.99-.86 26.95-3.43q7.31-2.11 11.06-1.73 14.31 1.44 28.25.16 8.71-.8 13.53-3.62 9.18-5.36 12.03-16.54c1.57-6.17 1.11-19.21-5.96-22.45q-1.36-.62-3.9-.9-11.32-1.23-16.5 7.52a1.56 1.56 0 0 1-2.49.27q-5.67-6.1-14.71-5.59-6.2.35-14.25 5.24a6.23 6.16-86.4 0 0-1.67 1.49q-4.18 5.34-7.38 12.37a.6.6 0 0 1-1.05.07q-.3-.48-.35-1.32-.41-6.74 3.26-12.59a.43.42-64.6 0 0-.22-.63q-2.79-.9-4.94-1.03c-7.26-.44-18.65-2.83-27.65-2.01q-6.28.57-10.85 4.91a.4.39 75.9 0 1-.65-.39q1.01-3.87 4.32-6.29a.38.38 0 0 0-.15-.68c-7.04-1.41-13.58-3.65-20.49-3.84q-6.98-.19-10.69.09c-2.01.15-3.06-.43-4.39-1.76q-4.42-4.4-2.63-11.21a2.81 2.76-20.5 0 1 .44-.94q3.02-4.34 4.43-5.53 2.32-1.97 4.39-1.31" vector-effect="non-scaling-stroke"/><path stroke="#80a295" d="M473.99 269.79q6.39 5.18 5.06 11.67-.43 2.12-.73 3.06a.44.44 0 0 0 .48.57l7.88-1.03a.45.44-9.9 0 0 .38-.54l-3.43-14.8" vector-effect="non-scaling-stroke"/><path stroke="#357239" d="M483.63 268.72c-.61-8.08-7.04-12.18-14.62-9.22-8.47 3.32-15.13 8.05-14.46 18.06a.34.34 0 0 1-.51.32c-1.3-.73-2.52-1.21-3.77-2.71q-11.62-13.84-30.57-12.32-6.11.49-9.66 2.93c-6.59 4.52-8.79 12.87-11.51 21.01a.67.67 0 0 1-1.14.23q-.39-.44-.48-1.2-.76-5.92.15-11.69a.49.49 0 0 0-.59-.56q-6.59 1.47-15.87 4.03c-17.32 4.79-31.42 12.01-36.72 30.29-3.72 12.86-2.6 24.94.67 38.37q3.77 15.46 11.51 31.65 2.67 5.59 4 10.34a2.81 2.8 63.9 0 1-1.03 3.02c-8.81 6.55-15.71 12.31-25.41 19.22q-9.94 7.08-15.85 12.02-13.26 11.08-23.92 24.23c-6.12 7.54-11.21 17.9-9.3 27.83a6.42 6.11 27.6 0 0 .53 1.56c6.21 12.52 14.82 21.55 27.13 28.17q21.43 11.52 30.38 17.83.75.53 2.98 3.4a.32.31 71.4 0 1-.25.51q-3.23-.06-3.78-.26-7.14-2.58-12.99-3.42a.55.54-82.3 0 0-.62.48l-.81 6.54a2.7 2.7 0 0 0 1.2 2.58q7.4 4.79 14.73 6.48a1.25 1.21 69.7 0 1 .44.21l2.75 1.99a.52.52 0 0 1-.27.94q-2.16.16-6.22.06c-3.95-.1-9.27-2.04-12.61-2.29a.51.51 0 0 0-.55.48q-.2 3.61 1.93 5.34c2.36 1.9 5.07 3.21 7.88 3.22q6.56.03 13.95-3.28c8.2-3.66 15.51-8.98 15.76-18.16.16-5.49-.79-13.4-2.05-18.53-1.12-4.57-4.52-7.43-6.82-11.29-4.71-7.91-11.06-14.6-17.97-20.96-1.37-1.26-2.62-2.85-3.25-4.39a1.42 1.41-30.8 0 1 .42-1.65q14.78-12.07 31.84-24.59 2.02-1.49 4.14-2.18a.61.61 0 0 1 .76.8q-3.23 8.31-8.09 16.26a4.64 4.62-25 0 0-.64 1.75q-1.07 7.25-.9 24.64.03 3 1.2 4.56c8 10.68 11.92 24.3 9.88 37.76-1.04 6.9-3.14 12.02-8.83 16.45q-8.61 6.7-18.38 9.38a.65.65 0 0 0-.47.6l-.65 26.68" vector-effect="non-scaling-stroke"/><path stroke="#b4cfa4" d="M483.63 268.72q-6.15-2.08-9.64 1.07" vector-effect="non-scaling-stroke"/><path stroke="#abc488" d="M379.39 330.85c-4.27 5.04-.25 14.1.98 19.36M400.31 374.65q9.1 18.29 12.23 34.08c2.1 10.58 4.03 19.05 5.18 28.09q2.75 21.86 3.19 42.93.02.68.52.79M421.28 481.98q-.3.13-.29.52.49 19.41-.35 45.23-.17 4.99-1.47 14.54-.68 4.96-1.53 14.51-1.13 12.7-3.56 25.52" vector-effect="non-scaling-stroke"/><path stroke="#808381" d="M1300.25 223.65h-25.14a.68.68 0 0 1-.67-.59q-.51-3.56-.48-5.3.25-13.74.17-22.61a.49.49 0 0 0-.49-.49h-25.26a.61.61 0 0 0-.61.61v27.58a.8.79-90 0 1-.79.8h-18.07a.56.55 90 0 0-.55.56v21.5a.58.58 0 0 0 .58.58h18.24a.64.63 89.5 0 1 .63.63q.04 14.1-.01 44.49c0 2.63.59 5.77.84 7.83q.36 2.92 1.38 5.8c5.18 14.76 19.01 18 33.51 16.55q10.97-1.1 14.98-1.38a.71.71 0 0 0 .67-.71v-20.57a.59.59 0 0 0-.57-.59q-2.98-.07-12.82.08-6.59.11-9.51-5.42-2.03-3.83-2.05-6.51-.17-21.43-.11-39.86a.38.38 0 0 1 .38-.38h25.77a.42.42 0 0 0 .42-.42v-21.74a.44.44 0 0 0-.44-.44M863.61 234.49a.61.61 0 0 1-1.01-.48l.28-9.97a.48.48 0 0 0-.48-.49h-25.93a.54.54 0 0 0-.54.54v96.82a.82.81-90 0 0 .81.82h25.6a.7.69 89.6 0 0 .69-.71q-.29-32.83-.13-52.74.06-7.11 1.24-10.22c4.78-12.62 19.68-14.82 29.45-6.49q4.96 4.23 4.91 10.42-.12 16.66-.2 59.26a.5.5 0 0 0 .5.5h25.04a.73.73 0 0 0 .73-.73q-.2-41.22-.21-57.03 0-5.78 2.62-9.79c3.01-4.61 9.36-7.36 14.57-7.59 7.73-.34 18.19 5.75 18.27 14.89q.23 29.08-.21 59.17a.99.99 0 0 0 .99 1.01h24.62a.37.36-90 0 0 .36-.37q-.15-18.46-.09-61.8.01-6.92-1.32-12.92c-3.55-16.04-16.69-24.7-32.65-24.82q-20.06-.15-30.79 16.19a.73.73 0 0 1-1.29-.15c-2.47-6.71-10.63-12.21-17.02-14.2-12.04-3.76-28.78-2.44-36.86 8.48q-1.48 1.99-1.95 2.4M1013.63 238.35c-18.53 21.09-15.07 56.98 6.81 74.4 20.76 16.53 52.73 14.06 70.64-6.3 17.91-20.37 16.26-52.4-2.79-70.87-20.08-19.47-56.12-18.31-74.66 2.77M1176.74 323.16c19.66-2.9 34.59-15.56 40.49-34.12 2.34-7.37 2.63-14.94 2.15-22.06q-.74-10.87-6.73-21.07-9.63-16.36-27.77-21.74c-6.89-2.04-14.51-2.31-22.11-1.82-31.53 2.05-49.04 31.15-43.47 60.78 4.4 23.37 23.82 40.19 48 40.24q7.86.02 9.44-.21" vector-effect="non-scaling-stroke"/><path stroke="#89aa9d" d="m729.48 404.58.03 30.38" vector-effect="non-scaling-stroke"/><path stroke="#808381" d="m729.51 434.96-.1 44.88a.54.53 0 0 0 .54.53h25.75a.39.38-90 0 0 .38-.39V427.3a.42.42 0 0 1 .42-.42h50.3a.52.52 0 0 0 .52-.52v-21.33a.61.61 0 0 0-.61-.61h-50.19a.42.41 0 0 1-.42-.41v-32.44a.47.46 0 0 1 .47-.46h59.41a.61.61 0 0 0 .61-.61v-21.53a.52.52 0 0 0-.52-.52h-86.1a.52.52 0 0 0-.52.52l.03 55.61" vector-effect="non-scaling-stroke"/><path stroke="#0a2e1f" d="M729.51 434.96q-.07-2.25.59-3.7a.67.66-32.9 0 1 1.27.27q0 35.41-.04 40.72-.02 2.37-.47 5.43a1.21 1.21 0 0 0 1.2 1.38h21.85a.92.91 0 0 0 .92-.91l.06-49.57a3.94 3.91 52.9 0 1 .14-1.04q.58-2.26 3.18-2.31 3.23-.06 5.84-.58a3.97 3.96 40.3 0 1 .97-.08q8.7.4 12.88.25c9.02-.34 13.4.07 23.42.05 1.19-.01 3.01 1.02 3.92-.41a.75.74-29.5 0 0 .11-.39v-17.32a.72.72 0 0 0-.72-.72h-47.75a1.91 1.91 0 0 1-1.91-1.89q-.18-15.44-.02-29.97.03-2.8.05-2.84.96-1.48 2.2-1.47 26.84.11 42.7-.29c4.73-.11 9.56.38 14.37.3a.8.8 0 0 0 .79-.8v-17.8a1.24 1.23 0 0 0-1.24-1.23h-82.16a.99.99 0 0 0-.95 1.28q.47 1.54.5 3.31.2 9.69.14 46.88-.01 5.6-1.87 3.07" vector-effect="non-scaling-stroke"/><path stroke="#808381" d="M914.24 436.9c.61-13.11-.18-25.54-7.17-36.99-6.75-11.07-20.28-18.1-32.81-18.58q-10.68-.4-14.77.23c-21.66 3.35-35.27 18.64-38.88 39.95q-1.75 10.32.18 21.01c3.56 19.7 16.04 34.22 35.99 38.63q13.1 2.89 26.13.2 19.53-4.03 28.47-21.14a.71.71 0 0 0-.35-.98q-16.69-7.15-17.35-7.4-.65-.24-1.68-1.14a.65.64 38.4 0 0-.95.1q-7.53 10.41-20.56 10.15c-10.7-.22-20.65-4.99-23.97-15.46q-1.29-4.04-2.01-7.14a.78.78 0 0 1 .76-.96h68.46a.51.51 0 0 0 .51-.48M955.93 394.45q-.26-.43-.28-1.18-.06-3.77.16-9.93a.47.47 0 0 0-.47-.48h-24.22a.57.56-90 0 0-.56.57v96.78a.41.41 0 0 0 .41.41h24.23a.52.52 0 0 0 .52-.52q.02-41.63-.05-49.06-.06-5.69.81-8.48c2.76-8.91 8.74-14.98 18.34-16.09 11.28-1.3 20.56 3.56 22.36 15.46q.22 1.5.22 10.75-.02 42.05-.05 47.37a.55.55 0 0 0 .55.56h24.36a.16.15-90 0 0 .15-.16q-.17-51.56-.03-59.95.13-8.29-1.02-13.83c-3.13-15.04-14.31-24-29.14-25.31-13.7-1.22-26.81 1.96-35.44 13.13a.52.52 0 0 1-.85-.04M1109.57 417.35l.41-.31a1.12 1.09-68.9 0 1 .37-.17l21.2-4.92a.9.9 0 0 0 .66-1.14c-5.05-16.61-20.06-28.09-37.35-29.31q-10.43-.74-15.59.09-22.82 3.66-34.23 22.95c-10.19 17.25-9.57 41.44 1.83 57.58 11.22 15.89 28.44 22.03 47.55 20.04 18.21-1.89 32.18-11.71 38.17-29.24a.28.27-72.2 0 0-.18-.36l-21.83-6.62a.82.82 0 0 0-.87.26q-.68.81-1.98 3.07c-3.21 5.58-9.63 9.74-16.16 10.34-17.72 1.6-28.36-12.48-28.08-29.05.21-12.57 7.22-24.2 20.14-26.13 9.1-1.36 18.41 1.14 22.89 9.54q1.16 2.16 2.06 3.26a.73.72 51.8 0 0 .99.12M1239.92 436.94c.61-13.11-.18-25.54-7.18-37-6.75-11.07-20.28-18.1-32.82-18.58q-10.68-.4-14.77.23c-21.67 3.36-35.28 18.65-38.89 39.97q-1.75 10.32.18 21.02c3.57 19.7 16.05 34.22 36.01 38.63q13.1 2.89 26.14.2 19.53-4.03 28.47-21.15a.71.71 0 0 0-.35-.98q-16.69-7.15-17.35-7.4-.65-.24-1.68-1.14a.65.64 38.4 0 0-.96.1q-7.53 10.41-20.56 10.16c-10.7-.22-20.66-4.99-23.98-15.47q-1.29-4.04-2.01-7.14a.79.78 83.5 0 1 .76-.96l68.48-.01a.51.51 0 0 0 .51-.48M846.48 584.53l-.76.32a2.4 2.32 27.5 0 1-.37.11l-17.11 3.3a.39.39 0 0 0-.3.47c3.11 13.37 14.94 23.34 28.32 24.8 4.95.54 14.33.68 19.98-.29 14.23-2.43 26.1-14.01 26.34-28.84.32-20.46-18.75-26.16-34.75-30.28-7.74-1.98-17.1-4.27-16.28-13.98.77-9.2 9.37-10.39 16.95-9.88 5.15.35 11.64 4.21 12.22 9.84a.69.69 0 0 0 .82.61l17.51-3.44a.73.72-3.3 0 0 .58-.64q.23-2.26-.71-4.59c-3.72-9.19-10.85-14.69-20.27-17.31q-5.66-1.57-8.11-1.77-9.04-.75-18.74 2.28c-10.24 3.18-17.73 9.95-20.22 20.63q-.17.73-.16 8.13c.01 9.32 5.34 16.63 13.55 20.81 8.56 4.35 18.85 6.14 26.73 8.72 5.25 1.72 10.84 4.47 10.65 11.02q-.25 8.45-8.57 11.06c-8.24 2.58-20.08 1.21-24.7-7.38q-1.82-3.39-1.83-3.42a.52.52 0 0 0-.77-.28M792.87 515.25q-.12 24.6.04 58.36c.05 10.7-5.93 20.75-17 22.4q-12.51 1.87-20.52-7.37c-3.9-4.5-4.74-9.96-4.76-15.96q-.08-23.84.18-57.16a.89.89 0 0 0-.89-.89h-19.28a.61.61 0 0 0-.61.63q.28 6.87.27 14.24-.09 38.71.12 47.98c.38 16.43 7.99 28.15 23.49 34 6.6 2.48 13.69 2.49 21.09 2.35q19.82-.38 31.51-16.07 2.83-3.8 4.8-10.53 1.15-3.91 1.1-11.55-.1-14.99 0-60.75a.36.36 0 0 0-.36-.36h-18.49a.69.68 0 0 0-.69.68M957.01 592.65q17.37 0 19.04.01a.97.96-9.9 0 1 .9.62l7.35 19.78a.62.61 79.5 0 0 .57.4h18.94a.74.73-10.2 0 0 .69-.99l-36.17-97.34a.7.69 79.8 0 0-.64-.45q-5.32-.11-10.67-.11-5.36 0-10.68.11a.7.69-79.8 0 0-.64.45l-36.17 97.34a.74.73 10.2 0 0 .69.99h18.94a.62.61-79.5 0 0 .57-.4l7.35-19.78a.97.96 9.9 0 1 .9-.62q1.67-.01 19.03-.01" vector-effect="non-scaling-stroke"/><path stroke="#0a2e1f" d="M1338.4 236.48q-.37-.48-.39-1.73-.3-19.97.08-48.56a.5.49-89.4 0 0-.49-.51h-21.33a.43.43 0 0 0-.43.43v132.54a1 .99-.8 0 0 1.03.99q7.87-.21 17.57.05.99.02 2.09.64a.99.99 0 0 0 1.47-.88q-.15-9.03-.03-47.46.02-6.36.59-8.45.98-3.6 3.24-7.87c4.74-8.96 15.5-11.87 24.99-9.95 7.59 1.54 11.57 6.25 14.11 13.39 1.26 3.55 1.11 8.65 1.14 12.4q.27 35.2-.12 47.31a.8.79 1 0 0 .8.82h19.9a.61.6 0 0 0 .61-.6q.39-32.12.1-63.79c-.07-7.57-2.08-17.03-7.61-22.41q-6.34-6.17-13.52-7.95-9.82-2.44-22.21-.14-3.97.74-8.75 3.46c-3.99 2.27-7.28 6.19-10.13 8.57a1.9 1.9 0 0 1-2.71-.3M724.75 288.14q-.29 1.91.25 5.16c.97 5.74 6.71 12.47 10.61 15.64q10.49 8.54 25.31 11.48c4.77.95 9.64.4 14.49.47q3.87.05 8.13-.72c10.46-1.9 19.26-5.75 26.62-13.52q10.15-10.72 9.87-25.66-.19-10.11-4.7-17.14c-6.01-9.36-14.43-13.52-25-17.13q-5.05-1.73-19.12-5.35c-7.19-1.86-19.43-6.19-19.61-15.63-.07-3.98-.33-7.44 1.96-10.62 5.23-7.25 12.41-7.99 21.19-7.63q6.2.26 10.15 2.46 7.22 4.03 9.41 11.79a1.4 1.39 74.1 0 0 1.73.97q10.13-2.88 20.59-3.96a1.05 1.05 0 0 0 .86-1.48q-1.37-3.05-2.21-5.6c-2.15-6.54-7.55-12.44-12.96-16.01q-6.83-4.52-16.83-6.79c-2.4-.55-4.57-.16-7.1-1.06a2.7 2.7 0 0 0-.68-.15q-10.43-.88-20.31 1.48-14.98 3.57-24.08 15.21c-6.89 8.82-7.45 22.71-3.64 33.02 4.35 11.8 14.8 17.34 26.32 20.89q8.53 2.63 16.97 4.53c8.66 1.94 22.59 7.12 23.04 17.44.62 14.04-13.14 21.57-25.62 19.8q-8.11-1.15-10.2-2.22c-4.3-2.2-11.86-8.08-13.25-13.56a1.19 1.18 77.1 0 0-1.38-.87l-20.03 3.95a.97.97 0 0 0-.78.81" vector-effect="non-scaling-stroke"/><path stroke="#80a295" d="M358.45 250.67q11.15-4.67 12.92-5.28 22.23-7.69 45.51-11.8c15.94-2.81 28.66-3.51 45.84-4.75a.78.77 73.7 0 0 .62-1.14q-4.97-9.34-10.88-18.89c-2.34-3.8-7.34-11.06-11.87-12.64a2.14 2.09-42.6 0 0-1.24-.04q-8.69 2.39-13.81 4.21-4.15 1.48-6.47 1.55c-16.16.44-40.36-6.58-50.57 9.08q-1.15 1.77-3.18 5.64a9.02 8.09-25.2 0 0-.52 1.23q-2.06 6.34-6.29 25.92-.87 4.02-.68 6.53a.45.45 0 0 0 .62.38M317.87 280.69c9.06.21 16.51-1.42 24.98-3.45a10.15 9.97-65.2 0 0 2.28-.86q1.93-1 3.08-1.4 17.46-5.95 28.81-9.4c18.84-5.71 34.79-10.13 51.72-11.87q29.25-3.01 33.45-3.63c3.41-.5 6.84-.03 10.26-.94q1.3-.34 4.38-.87 29.41-5.01 43.27-7.4a.34.34 0 0 0 .02-.67q-4.46-.99-8.37-1.26-26.75-1.85-51-.93-22.83.87-40.16 3.92-28.73 5.04-58.44 16.77c-7.5 2.96-14.28 7.36-22.33 9.98a8.09 7.39-66 0 0-1.28.56q-10.06 5.6-18.9 9.37-1.4.59-2.04 1.58a.33.32 17.1 0 0 .27.5" vector-effect="non-scaling-stroke"/><path stroke="#779879" d="m470.7 345.64 1.3-4.04a.27.27 0 0 0-.17-.34l-.12-.04a6.9 2.36 17.9 0 0-7.29.13l-.02.06a6.9 2.36 17.9 0 0 5.84 4.36l.12.04a.27.27 0 0 0 .34-.17" vector-effect="non-scaling-stroke"/><path stroke="#7f8b2c" d="M674.942 380.072a.5.5 0 0 0-.353-.613l-29.905-8.013a.5.5 0 0 0-.613.354l-.693 2.588a.5.5 0 0 0 .353.613l29.905 8.013a.5.5 0 0 0 .613-.354l.693-2.588" vector-effect="non-scaling-stroke"/><path stroke="#779879" d="M473.33 374.2a.87.64.7 0 0-.862-.65.87.64.7 0 0-.878.63.87.64.7 0 0 .862.65.87.64.7 0 0 .878-.63" vector-effect="non-scaling-stroke"/><path stroke="#7f8b2c" d="M620.7 578.35a.42.42 0 0 0 .52-.3l16.12-58.37a1.47 1.47 0 0 0-1.23-1.85l-8.96-1.11a2.42 2.42 0 0 1-2.12-2.54c.23-4.22 2-8.18 2.75-12.1q1.21-6.3 3.73-13.58c1.14-3.29-.73-7.88-.15-11.02q.85-4.59 4.61-8.24a1.27 1.27 0 0 0 .3-1.38q-2.06-5.12.48-9.71c4.32-7.8 10.21-9.09 19.06-12.14a1.48 1.46 88.5 0 0 .93-.99l15.76-57.07a.59.59 0 0 0-.44-.73c-7.89-1.81-11.72-3.19-19.64-4.98q-2.83-.64-9.42-2.9a1.09 1.09 0 0 0-1.41.74l-12.16 44.04a1.65 1.63-68.6 0 0 .82 1.9c6.38 3.36 10.49 8.83 9.04 16.54-1.78 9.45-10.19 14.68-19.18 15.35a.79.77-84 0 0-.69.57l-30.6 110.82a.24.23-75.1 0 0 .16.29l31.72 8.76" vector-effect="non-scaling-stroke"/><path stroke="#80a295" d="m252.85 388.22-.18 17.22a.3.3 0 0 0 .3.3l8.09.09a2.75 1.77.6 0 0 2.76-1.74l.15-14.28a2.75 1.77.6 0 0-2.73-1.8l-8.09-.08a.3.3 0 0 0-.3.29M198.545 388.522a.32.32 0 0 0-.32-.32l-8.32.015a.32.32 0 0 0-.32.32l.03 17.08a.32.32 0 0 0 .32.32l8.32-.014a.32.32 0 0 0 .32-.32l-.03-17.08M342.9 391.79l-2.72-2.81a1.6 1.59 67.7 0 0-1.14-.48h-20.66a.49.49 0 0 0-.49.49v18.32a.32.32 0 0 0 .29.32q4.33.46 7.85-1.6 9.99-5.89 16.84-12.59a1.17 1.17 0 0 0 .03-1.65" vector-effect="non-scaling-stroke"/><path stroke="#357239" d="M487.6 407.11q.55 1.37 1.09 2.28 13.18 22.45 18.84 40.55 4.66 14.91 8.62 30.62.38 1.5 1.34 2.61a2.02 2.01 77.1 0 0 1.02.64q18.61 5.03 37.79 2.79c13.52-1.57 21.32-3.22 36.41-6.41a4.65 4.58-45.5 0 1 1.78-.03l9.32 1.67a.61.6-76.9 0 0 .69-.44l7.24-26.21a1.57 1.56 31.7 0 0-.35-1.47q-1.83-2.02.21-4.48 1.02-1.23 2.73-.64 2.45.85 4.66 1.11 7.55.91 11.17-4.81c1.68-2.68 1.7-5.83.6-8.6-1.59-3.99-6.77-6.07-10.8-5.65q-7.15.75-11.79 6.04-4 4.56-9.08 9.69c-3.06 3.09-5.91 2.49-10.68 2.33q-16.52-.55-39.87-2.78c-9.9-.94-14.24-5.64-21.8-12.84q-5.03-4.78-18.91-15.73-8.95-7.06-19.84-10.66a.32.32 0 0 0-.39.42" vector-effect="non-scaling-stroke"/><path stroke="#80a295" d="M264.157 414.51a.68.68 0 0 0-.68-.681l-10.2-.018a.68.68 0 0 0-.68.679l-.154 87.94a.68.68 0 0 0 .68.681l10.2.018a.68.68 0 0 0 .68-.679l.154-87.94" vector-effect="non-scaling-stroke"/><path stroke="#357239" d="M663.55 452.62c-5.66-.57-13.12 1.79-18.24 4.19a2.54 2.53-7.7 0 0-1.41 1.84l-.95 5.29a.73.73 0 0 0 .06.44q1.6 3.14 5.52 3.02c4.18-.12 11.1-.7 14.23-3.62 2.85-2.66 5.24-7.64 1.83-10.7a1.87 1.82 68.1 0 0-1.04-.46M640.04 473.14l-1.44 5.22a3.17 3.17 0 0 0 1.25 3.45c7.2 5.02 15.23 1.7 20.1-5.09q1.03-1.45.93-2.78a1.23 1.23 0 0 0-1.58-1.09q-6.75 2.01-12.55 2.26-2.02.09-4.54-2.53a1.3 1.29-59.3 0 0-2.17.56" vector-effect="non-scaling-stroke"/><path stroke="#7f8b2c" d="m644.49 491.32-5.81-1.04a.77.76-75.7 0 0-.85.51q-2.38 7.05-4.11 15.7-.4 1.99-.21 2.97a1.05 1.05 0 0 0 1.17.84l4.6-.6a.98.98 0 0 0 .83-.72l4.73-17.1a.45.45 0 0 0-.35-.56" vector-effect="non-scaling-stroke"/><path stroke="#80a295" d="M198.29 529.78a.68.68 0 0 0 .59-.68v-17.63a.68.68 0 0 0-.77-.67l-8.53 1.1a.68.68 0 0 0-.59.68v17.64a.68.68 0 0 0 .77.67l8.53-1.11M252.95 511.16a.94.94 0 0 0-.94.94v16.66a.94.94 0 0 0 .94.94h9.85a.94.94 0 0 0 .94-.91l.46-16.66a.94.94 0 0 0-.94-.97h-10.31M317.96 530.04c.3-3.85-.55-6.83 1.88-10.74a.64.63 32.3 0 0-.2-.87q-.34-.21-1.67-.62a.42.42 0 0 0-.55.39l-.38 11.82a.03.02 31.7 0 0 .01.02l.51.23a.28.28 0 0 0 .4-.23" vector-effect="non-scaling-stroke"/><path stroke="#7f8b2c" d="M619.657 584.174a.71.71 0 0 0-.48-.882l-30.794-9.063a.71.71 0 0 0-.882.48l-.858 2.917a.71.71 0 0 0 .48.882l30.794 9.063a.71.71 0 0 0 .882-.48l.858-2.917" vector-effect="non-scaling-stroke"/><path stroke="#0a2e1f" d="M1249.15 197.46q.13.26.16 1.04.5 10.42.29 23c-.03 1.75-.7 3.64-2.5 3.62q-10.64-.07-15.31-.17a1.39 1.39 0 0 0-1.42 1.39v17.82a.51.49-3.1 0 0 .56.49q8.61-.94 16.58-.19a2.14 2.13 82.3 0 1 1.81 1.39q.83 2.29.75 4.4-.41 11.33.01 43.24.15 11.39 5.87 19.18a3.9 3.77 2.1 0 0 .7.73q4.75 3.84 10.32 5.38c5.76 1.58 10.99 1.06 18.91.66q6.03-.31 9.82-1.02a1.34 1.34 0 0 0 1.1-1.32v-15.59a1.44 1.44 0 0 0-1.58-1.43c-6.04.59-11.53.76-16.94-1.95a2.89 2.74-4.9 0 1-.9-.72q-4.32-5.24-4.87-10.19-.56-5.04.1-35.47.07-3.13-.21-5.66a1.4 1.39 86.6 0 1 1.37-1.55c5.42-.02 8.3.25 13.63-.28q5.11-.51 10.23.59a1.48 1.48 0 0 0 1.79-1.45v-17.92a.61.61 0 0 0-.61-.61h-24.34a1.72 1.72 0 0 1-1.72-1.72v-25.78a1.02 1.02 0 0 0-1.02-1.02l-21.85-.07a.82.82 0 0 0-.73 1.18M918.7 238.57q-7.43-12.44-20.93-14.48c-10.5-1.58-21.62-.5-29.4 7.06q-.46.45-3.99 4.11a1.75 1.75 0 0 1-2.9-.58c-.78-2-.04-6.38.08-8.94a.62.61 1.3 0 0-.62-.64h-22.32a1.05 1.05 0 0 0-1.04 1.17q.22 1.73.32 6.6c.31 14.91.06 41.85.19 64.05q.1 15.47.03 19.82-.04 2.58 1.97 2.58 15.08.04 19.78.24a1.19 1.18 86.1 0 0 1.22-1.4c-.45-2.45.01-5.2.01-7.08q.12-27.15.06-44.58-.03-8.33 4.15-13.84c8.87-11.71 28.25-9.48 34.09 4.65q.96 2.34.99 7.55.08 12.06.06 14.64-.04 4.69.18 9.49c.4 8.85.25 20.47.24 26.13l-.17.98q-.26 1.51.77 2.85a.63.62 70.4 0 0 .49.24h19.45a.7.7 0 0 0 .7-.7q-.09-22.27.34-53.74.07-5.41 2.66-10.39c4.14-7.99 16.43-11.26 24.4-7.97q4.22 1.74 7.5 5.39c3.31 3.69 4.3 5.73 4.43 10.7q.21 8.55.3 22.27.02 2.42-.43 34.21-.01.65.66.69.22.02.61-.18a.61.6 32.6 0 1 .32-.07l20.45.3a.51.51 0 0 0 .51-.52q-.4-22.17-.01-44.05.18-10.01-.2-19.8c-.48-12.13-4.69-22.75-16.19-28.24q-4.3-2.06-5.78-2.4-6.42-1.49-14.35-.91-16.43 1.2-25.04 14.76-1.1 1.73-3.11.51a1.4 1.4 0 0 1-.48-.48M1060.15 321.64c19.09-2.82 33.59-15.12 39.32-33.14 2.27-7.16 2.55-14.51 2.09-21.42q-.72-10.56-6.54-20.47-9.35-15.88-26.97-21.11c-6.69-1.98-14.09-2.24-21.47-1.76-30.62 1.99-47.63 30.25-42.21 59.03 4.27 22.69 23.13 39.03 46.61 39.07q7.64.02 9.17-.2M1178.98 321.24c18.89-3.76 32.73-16.75 37.53-35 1.91-7.25 1.82-14.59 1.01-21.46q-1.25-10.48-7.54-20.06-10.12-15.37-27.94-19.69c-6.77-1.64-14.16-1.53-21.49-.68-30.42 3.52-45.95 32.54-39.12 60.95 5.4 22.4 25.02 37.74 48.43 36.61q7.61-.37 9.12-.67" vector-effect="non-scaling-stroke"/><path stroke="#0a2e1f" d="M1053.013 242.913a29.6 27.03-89.2 0 0-27.44 29.22 29.6 27.03-89.2 0 0 26.614 29.974 29.6 27.03-89.2 0 0 27.44-29.22 29.6 27.03-89.2 0 0-26.614-29.974M1167.045 242.972a29.68 27.15-93.7 0 0-25.178 31.37 29.68 27.15-93.7 0 0 29.008 27.866 29.68 27.15-93.7 0 0 25.178-31.37 29.68 27.15-93.7 0 0-29.008-27.866" vector-effect="non-scaling-stroke"/><path stroke="#808381" d="M1166.984 244.429a28.18 25.6-94 0 0-23.572 29.897 28.18 25.6-94 0 0 27.504 26.325 28.18 25.6-94 0 0 23.572-29.897 28.18 25.6-94 0 0-27.504-26.325M1052.835 244.322a28.14 25.44-89.4 0 0-25.734 27.872 28.14 25.44-89.4 0 0 25.144 28.404 28.14 25.44-89.4 0 0 25.734-27.872 28.14 25.44-89.4 0 0-25.144-28.405" vector-effect="non-scaling-stroke"/><path stroke="#b4cfa4" d="M417.51 294.48q4.03 4.44 9.35 3.13c6.47-1.59 11.37-5.36 12.12-11.99q.38-3.34-2.04-6.25-4-4.83-10.99-4.82" vector-effect="non-scaling-stroke"/><path stroke="#357239" d="M425.95 274.55q-5.06-2.4-8.64-.27c-3.91 2.33-5.98 8.15-5.5 12.61q.6 5.66 5.7 7.59" vector-effect="non-scaling-stroke"/><path stroke="#80a295" d="M425.95 274.55c4.38 5.31 6.34 11.06 1.56 16.77q-3.47 4.15-10 3.16" vector-effect="non-scaling-stroke"/><path stroke="#357239" d="M595.663 302.715a5.09 4.4-107.1 0 0-2.708 6.159 5.09 4.4-107.1 0 0 5.702 3.571 5.09 4.4-107.1 0 0 2.708-6.159 5.09 4.4-107.1 0 0-5.702-3.571M566.54 308.287a4.88 4.46-54.7 0 0-6.46 1.406 4.88 4.46-54.7 0 0 .82 6.56 4.88 4.46-54.7 0 0 6.46-1.406 4.88 4.46-54.7 0 0-.82-6.56" vector-effect="non-scaling-stroke"/><path stroke="#7f8b2c" d="M654.294 397.006a12.76 12.29-68.9 0 0-16.06 7.48 12.76 12.29-68.9 0 0 6.872 16.329 12.76 12.29-68.9 0 0 16.06-7.48 12.76 12.29-68.9 0 0-6.872-16.33M607.61 559.48c5.76 2 11.71-1.76 14.81-6.36 4.48-6.68 1.71-16.11-6.07-18.81s-15.8 2.99-16.42 11.01c-.42 5.52 1.92 12.16 7.68 14.16" vector-effect="non-scaling-stroke"/><path stroke="#0a2e1f" d="M909.16 461.15a.92.92 0 0 0-.45-1.27l-16.54-7.12a.78.78 0 0 0-.88.18c-3.73 3.97-6.01 6.38-11.36 8.22-5.43 1.86-14.14 1.7-20.12-.54q-14.74-5.5-16.56-22.29a2.15 2.15 0 0 1 2.14-2.38h66.67a.81.81 0 0 0 .81-.82c-.17-9.76-.32-19.17-3.65-27.54-3.15-7.9-8-14.55-15.26-18.68-11.56-6.57-25.62-7.7-38.5-4.93q-7.81 1.68-16 7.13c-1.94 1.29-3.73 3.73-5.73 5.64-4.26 4.08-7.4 10.46-9.16 15.83q-5.23 16-1.61 32.26c3.8 17.07 14.55 29.41 31.38 34.05q12.99 3.59 25.17 1.55c12.78-2.13 23.62-7.88 29.65-19.29M958.99 394c-1.45 1.69-4.83 2.18-4.89-.88q-.05-2.73.34-7.52a.98.97-87.8 0 0-.97-1.05h-20.23a1.05 1.04 90 0 0-1.04 1.05v92.89a.8.8 0 0 0 .8.8h20.43a1 1 0 0 0 1-1.07c-1.15-16.11-1.06-32.64-.15-49.03q.36-6.61 1.1-8.55c3.59-9.55 11.51-15.62 21.69-15.79q5.24-.09 6.18.14c7.14 1.73 12.6 6.31 14.54 13.38q1.27 4.67 1.26 6.4-.22 24.16.01 40.17c.06 4.27-.49 8.53-.62 13.24a1.12 1.11-89.2 0 0 1.11 1.15h20.82a.83.82-88.1 0 0 .82-.78q.08-1.48-.24-3.29a3.09 2.81 42.4 0 1-.05-.54q-.17-52.1-.12-55.17.06-4.01-.38-7.59-.78-6.39-1.11-7.53-4.36-15.41-18.77-19.81-13.79-4.2-27.92.32-8.03 2.56-13.61 9.06M1130.52 454.41a.72.72 0 0 0-.46-.96l-18.98-5.75a1.11 1.1-68.2 0 0-1.31.57q-6.36 12.78-21.01 13.02-8.32.13-14.35-4.41c-4.48-3.37-9.57-9.03-10.82-14.64-.76-3.4-1.86-6.3-1.97-9.66-.39-11.32 5.18-22.98 15.63-27.73q8.31-3.78 17.65-1.44c6.09 1.53 11.12 5.6 13.49 11.39a1.14 1.13-17.4 0 0 1.31.68l20.55-4.77a.44.44 0 0 0 .33-.56c-1.51-4.9-4.04-9.46-7.88-13.39q-4.52-4.62-4.7-4.76-4.84-3.89-10.51-6.13-2.93-1.16-7.29-1.93-7.09-1.24-7.46-1.24c-9.17-.1-16.31.33-23.42 3.02q-16.07 6.08-24.21 21.88c-4.55 8.82-5.36 17.28-5.2 27.14q.36 22.53 17.82 36.78c9.58 7.82 26 11.29 37.82 8.98 5.4-1.05 8.43-1.39 12.3-2.94q16.14-6.48 22.67-23.15M1216.98 452.9q-5.71 7.68-14.33 9.09-6.21 1.02-12.82-.11-6.11-1.04-11.55-5.11c-5.18-3.88-9.57-12.42-9.2-18.97a1.97 1.96-88.5 0 1 1.96-1.86h66.1a1.09 1.08-1 0 0 1.09-1.12q-.28-8.05-.47-14.01c-.18-5.32-2.14-12.29-4.08-16.26q-7.25-14.87-23.16-19.57-13.25-3.91-28.02-1.3-5.37.95-9.62 3.06-6.32 3.15-8.59 5.31-6.59 6.31-7.76 7.99-6.31 9.09-7.96 17.86-1.34 7.17-.91 18.13.58 14.85 8.23 26.31 8.13 12.19 23.05 16.48 12.56 3.62 25.63 1.72c12.71-1.85 24.22-7.75 30.44-19.39a1.11 1.11 0 0 0-.65-1.59q-8.71-2.68-16.44-6.87a.74.74 0 0 0-.94.21" vector-effect="non-scaling-stroke"/><path stroke="#0a2e1f" d="M890.62 420.96q.51-5.3-1.59-9.24c-5.15-9.71-17.02-12.85-27.07-10.69-8.76 1.87-15.15 9.62-17.99 17.85-.7 2.05.08 3.74 2.31 3.73q22.59-.02 38.72-.16 4.2-.03 5.02-.53a1.27 1.27 0 0 0 .6-.96M1216.28 421.08q.54-5.32-1.55-9.28c-5.13-9.76-17.03-12.96-27.12-10.83-8.8 1.84-15.24 9.59-18.12 17.84-.71 2.05.07 3.75 2.3 3.75q22.67.07 38.85-.01 4.21-.01 5.04-.51a1.27 1.27 0 0 0 .6-.96" vector-effect="non-scaling-stroke"/><path stroke="#80a295" d="M654.14 403.15q-7.23-1.96-9.95 3.99-.99 2.15-.18 3.83c1.2 2.49 3.92 5.29 6.88 3.94 5.56-2.53 3.81-6.11 3.96-10.81a.97.96 8.5 0 0-.71-.95" vector-effect="non-scaling-stroke"/><path stroke="#808381" d="M845.07 420.31a.62.62 0 0 0 .58.84l42.69-.05a1.05 1.04-.1 0 0 1.05-1.04c.01-10-7.17-15.92-16.43-17.79q-13.97-2.82-23.1 8.32c-2.33 2.85-3.43 5.98-4.79 9.72M1170.65 420.39a.63.62 10.1 0 0 .59.84h42.97a1.06 1.05 0 0 0 1.06-1.05c.02-10.07-7.2-16.03-16.52-17.92q-14.06-2.86-23.26 8.35c-2.35 2.86-3.46 6.01-4.84 9.78" vector-effect="non-scaling-stroke"/><path stroke="#0a2e1f" d="M830.09 590.98c4.61 12.97 15.49 20.59 29.11 21.33 7.05.38 15.01.69 21.47-1.72q6.09-2.27 9.51-4.9c12.28-9.44 15.31-29.08 2.88-39.53q-2.67-2.25-7.54-4.54-5.23-2.46-8.32-3.3-12.57-3.41-15.31-4.26c-3.48-1.07-8.86-3.63-10.64-7.29q-2.47-5.1-.19-10.79c2.71-6.79 13.42-8.43 19.32-7.12q8.02 1.78 11.26 8.82a2.09 2.09 0 0 0 2.48 1.14q6.98-2.01 13.05-2.38a1 .99-88.6 0 0 .93-.89q.17-1.51-.51-3.17c-3.39-8.18-9.51-13.25-17.93-15.63q-5.49-1.55-7.09-1.76-15.53-2.02-28.33 5.4c-7.27 4.21-11.29 11.48-11.31 20.01q-.01 5.4.23 6.7 2.15 11.79 13.18 16.81c8.59 3.89 19.82 6.16 26.58 8.46 5.85 2 10.62 5.35 11.02 11.88.36 5.98-4.61 11.72-10.04 12.91-9.5 2.08-18 1.27-24.9-6.15a1.34 1.26 13.5 0 1-.25-.38l-1.46-3.14a1.74 1.74 0 0 0-1.91-.98l-14.36 2.83a1.24 1.24 0 0 0-.93 1.64M794.31 517.78q-.15 1.88.08 13.92c.24 12.68-.03 30.52-.05 37.16q-.03 10.14-1.25 13.66c-2.23 6.41-7.74 13.36-14.7 14.6-6.2 1.1-13.13 1.07-18.59-2.58q-6.83-4.56-9.56-11.89a4.34 4.11-60.1 0 1-.22-.91c-.49-3.62-1.11-6.62-1.11-10.83q-.02-19.05.24-53.87a.92.91 87.2 0 0-1.01-.92q-8.28.87-15.75-.17a.72.72 0 0 0-.81.81q.32 2.37.35 4.58.32 24.77.19 54.87c-.05 11.25 3.16 21.64 12.26 28.48q7.21 5.42 15.49 6.9 7.15 1.28 17.46.78c9.23-.44 20.91-5.93 26.6-13.48q6.89-9.16 6.96-20.17.04-7.24.08-61.51a.66.66 0 0 0-.66-.66h-14.67a1.33 1.33 0 0 0-1.33 1.23M1001.92 610.38l-34.63-93.19a1.07 1.07 0 0 0-1-.69h-18.56a1.07 1.07 0 0 0-1 .69l-34.57 93.01a.94.94 0 0 0 .88 1.27h14.86a1.74 1.74 0 0 0 1.69-1.33q2.27-9.37 6.35-17.81a2.89 2.87-78 0 1 2.49-1.63q19.45-.68 36.31-.23 3 .08 3.84 2.01 3.62 8.31 6.8 17.98a1.4 1.39 80.7 0 0 1.32.96h14.5a.77.77 0 0 0 .72-1.04" vector-effect="non-scaling-stroke"/><path stroke="#89aa9d" d="M957.74 538.51q-.53-.29-1.15-.01" vector-effect="non-scaling-stroke"/><path stroke="#0a2e1f" d="M956.59 538.5q-.15-.44-.33-.48a1.42 1.35-75 0 0-1.53.93q-6.13 17.12-12.18 33.3a1.64 1.52-37 0 0-.1.55c-.02 2.21.82 2.98 3.15 3.1q12.35.6 24.39-.14a1.45 1.45 0 0 0 .86-.35q1.75-1.52 1.21-2.94-7.07-18.56-11.62-31.34-.79-2.2-1.59-2.99a.67.66-21.8 0 0-.43-.18q-.56-.03-.68.55" vector-effect="non-scaling-stroke"/><path stroke="#808381" d="m956.59 538.5-12.67 35a.67.67 0 0 0 .63.9h25.52a.6.59 79.9 0 0 .55-.8l-12.88-35.09" vector-effect="non-scaling-stroke"/><path stroke="#80a295" d="M613.834 539.95a6.82 5.6-75.1 0 0-7.166 5.15 6.82 5.6-75.1 0 0 3.658 8.03 6.82 5.6-75.1 0 0 7.166-5.15 6.82 5.6-75.1 0 0-3.658-8.03" vector-effect="non-scaling-stroke"/></g><path fill="#fff" d="M1536 0v1024H0V0zm-196.59 235.9v-51.19a.34.33-90 0 0-.33-.34h-24.29a.62.61 90 0 0-.61.62v136.23a.46.46 0 0 0 .46.46h24.63a.22.22 0 0 0 .22-.22q-.02-12.02-.05-49.63c-.01-6.6.73-10.29 3.75-15.66 4.67-8.32 14.55-11.22 23.41-9.03 7.79 1.92 13.18 8.43 13.24 16.11q.19 28.83-.06 57.91a.46.45.6 0 0 .46.46h24.48a.66.66 0 0 0 .66-.66q-.22-28-.09-59.3c.01-3.56-.34-6.5-.67-10.63-1.98-25.04-25.49-33.45-47.09-27.2-7.61 2.2-12.56 6.4-17.28 12.36a.47.47 0 0 1-.84-.29m-520.15-17.22q-4.3-18.76-20.66-26.82-22.51-11.1-47.53-2.31c-14.99 5.26-26.05 19.08-25.42 35.49q.84 22.26 20.92 31.38c10.37 4.72 22.66 6.8 31.62 9.66 7.95 2.53 17.03 6.55 16.31 16.54q-.62 8.74-8.8 13.06-4.35 2.31-6.23 2.52c-12.46 1.43-23.92-1.18-30.59-12.76q-.54-.95-.71-2.44a1.59 1.59 0 0 0-1.89-1.38l-21.14 4.16a1.33 1.33 0 0 0-1.07 1.27c-.13 4.79-.69 8.15 1.69 12.2 9.78 16.62 27.12 23.31 46.23 23.42 19.99.11 39.02-8.23 47.09-27.09 4.16-9.71 3.35-22.16-1.74-31.29-9.09-16.31-29.87-20.26-46.36-24.53-8.24-2.14-17.15-5.43-18-14.61-.75-8.12 3.87-14.28 11.8-15.56 11.44-1.84 23.58-.53 27.97 11.9q.28.77.21 2.12a.79.79 0 0 0 .94.81l24.81-4.89a.71.7 78.1 0 0 .55-.85M346.3 582.24l67.78.06 91.55-.15 1.31-.23a.89.86-38.3 0 1 .5.05c3.01 1.29 7.2.92 8.28-2.84q1.9-6.66 2.56-12.62c1.65-14.93 3.6-32.16 2.05-48.64q-.98-10.4-2.59-24.1a.42.42 0 0 1 .51-.46q23.77 5.48 48 1.15c9.29-1.66 15.56-2.68 21.93-4.37q6.52-1.74 13.11.4a.59.58 16.3 0 1 .39.7q-11.28 42.18-20.63 76.26c-1.32 4.84-2.79 8.58-3.41 13.05q-.48 3.48 2.23 4.3 14.66 4.45 38.16 11.15 1.62.46 4.21.22a3.48 3.47-84.9 0 0 3.03-2.54l28.58-103.52a2.24 2.23-2.1 0 1 1.41-1.51q8.23-2.91 12.53-9.7 2.43-3.84.35-9.91a.64.63 57.4 0 1 .14-.65q5.19-5.33 5.43-10.92.36-8.53-8.1-11.36a.65.65 0 0 1-.42-.78q6.23-23.52 18.12-66.47 1-3.6-1.23-5.41-.39-.32-5.67-1.73-18.6-4.96-22.98-6c-3.9-.93-7.73-2.65-12.03-2.59-2.32.03-3.72.48-4.34 2.74q-1.46 5.35-15.49 56.06a.79.79 0 0 1-.72.58q-7.06.32-12.83 4.34-8.14 5.66-14.6 12.97a2.28 2.27-66.7 0 1-1.9.76q-13.25-1.15-38.52-2.25c-3.35-.15-7.42-1.03-9.62-2.9q-21.1-17.96-26.74-22.52-14.82-11.96-32.71-17.73a2.91 2.88-8.8 0 1-1.44-1.04l-6.44-8.62a.86.86 0 0 1 .17-1.19q7.66-5.83 15.33-9.97 5.75-3.11 9.98-3.37 22.55-1.39 41.6-3.95 11.32-1.53 16.12-2.57 8.89-1.93 15.33-5.26 8.71-4.5 10.72-14.74a.51.51 0 0 1 .45-.41q14.03-1.64 22.81-11.32c8.23-9.07 10.42-21.55 7-33.44q-1.96-6.83-7.41-10.35c-7.99-5.18-15.08-4.55-23.16-1.28q-2.41.98-6.78 3.65a1.03 1.01 39.7 0 1-.95.08c-3.94-1.67-6.52-3.05-9.68-3.39q-6.74-.73-12.24 1.63-5.24 2.25-5.59 2.32a5.94 5.88-47.1 0 1-1.93.08l-50.18-6.23a2.12 2.12 0 0 1-1.85-1.86q-1.17-10.07-4.21-17.91a.96.95-20.4 0 1 .57-1.24q19.09-6.92 28.58-10.53 8.39-3.2 15.01-7.48c3.9-2.53 6.48-6.44 2.97-10.74-2.78-3.4-9.94-4.6-13.98-4.94q-23.09-1.95-49.71-1.54a1.49 1.48 76.1 0 1-1.36-.83q-7.3-14.93-16.54-28.28-5.56-8.04-10.21-10.35-6.64-3.3-14.73-.59-6.97 2.34-11.56 3.97a8.83 8.8-52.1 0 1-3.72.47q-12.08-1.07-20.65-1.46c-8.57-.4-19.37.8-26.42 5.76-8.26 5.82-12.97 14.37-15.16 23.77-2.41 10.35-4.51 17.45-4.77 27.76-.12 4.56-.34 6.36-4.77 7.9q-15.29 5.3-29.74 13.51-4.93 2.8-8.51 6c-3.02 2.68-3.66 7.83-.81 10.98 4.47 4.95 12.24 5.79 18.77 6.99q8.01 1.48 15.07 1.27a.4.4 0 0 1 .38.55c-1.09 2.7-1.7 4.25-4.23 6.33-5.24 4.32-7.95 8.77-7.32 15.72.26 2.91 2.34 4.14 4.99 4.93a1.26 1.26 0 0 1 .88 1.13q.21 3.63-1.1 5.51c-4.88 7.02-9.83 15.96-1.93 22.05a.91.75-5.7 0 0 .18.12l5.78 2.75a1.19 1.16-84.3 0 1 .63.79l1.23 5.3a1.39 1.38 57.8 0 1-.26 1.17c-3.8 4.89-7.73 10.17-7.59 16.53a.56.55-4 0 1-.49.56l-12.51 1.63a.63.62 86.5 0 1-.71-.63q.04-17.19.04-32.07c0-4.29-2.02-6.56-4.12-9.29q-5.78-7.48-18.44-24.83-2.33-3.19-3.76-3.61c-3.33-.98-5.6 3.12-7.27 5.93q-.89 1.5-2.78 3.93-10.84 13.97-16.47 22.39-1.47 2.19-1.37 4.24.69 14.84.35 31.94a.49.49 0 0 1-.5.48l-10.23-.3a.58.58 0 0 1-.57-.58q.17-23.05.03-30.31-.05-2.88-1.32-4.65-11.81-16.58-20.16-29.83c-1.72-2.71-4.38-5.56-7.8-3.64a2.62 2.58 6.2 0 0-.67.53c-1.83 2-3.33 5.15-5.09 7.42q-9.14 11.79-17.56 23.81-1.53 2.19-1.54 4.27-.12 23.93-.02 32.48a.49.48 88.8 0 1-.46.49q-6.79.27-12.86-.24-3.92-.33-3.9 3.44.06 13.37.04 26.9 0 4.42 4.56 4.13 1.11-.07 12.1.01a.75.75 0 0 1 .74.75v87.13a.43.42-.7 0 1-.42.42c-4.8.14-9.39 1.23-14.1.62a1.47 1.44 33.1 0 0-.86.17c-2.31 1.3-2.27 4.65-2.33 7.31q-.21 9.47-.21 24.71c0 2.9.79 3.82 3.61 3.85q5.73.07 13.5-.14a.58.58 0 0 1 .59.58v39.81a3.47 3.47 0 0 0 4.25 3.38l.42-.1a5.52 5.52 0 0 0 4.27-5.38q0-200.1.03-224.48 0-3.15.52-5.72a1.16 1 72.9 0 1 .18-.41l16.93-23.31a.54.54 0 0 1 .87 0l17.39 24.2a1.53 1.51 27.4 0 1 .29.89v230.52a3.79 3.79 0 0 0 3.68 3.79l.68.02a4.16 4.16 0 0 0 4.28-4.16v-39.99a.42.41.7 0 1 .43-.41l10.45.3a.74.74 0 0 1 .72.74v39.95a3.74 3.73-1.3 0 0 3.91 3.73l.54-.02a4.35 4.34-1.2 0 0 4.15-4.33l.34-229.91a.76.7-34.6 0 1 .07-.31q.7-1.53 1.99-3.35 7.06-10.01 15.4-21.09a.5.5 0 0 1 .8 0l18.23 24.44a.42.38-65.1 0 1 .07.23q.15 33.21.07 62.82c0 1.33.34 3.61.48 5.22a2.08 2.07 65.4 0 1-.62 1.68q-8.49 8.28-15.75 15.4-10.98 10.78-16.7 25.5-2.54 6.54-1.42 14.81.86 6.38 6.04 13.49 7.27 9.97 15.16 16.32 4.54 3.64 11.35 8.24a1.16 1.14-73.4 0 1 .51.96v65.58a4.23 4.22-87.2 0 0 3.81 4.21l.62.06a3.84 3.84 0 0 0 4.21-3.82v-39.35a.29.28 11.6 0 1 .4-.26l.45.19a.05.03-80.8 0 1 .02.04c.51 9.92 8.88 15.59 17.83 17.3a1.25 1.24-83.5 0 1 1.01 1.27l-.6 21.04a1.06.96 42.1 0 0 .02.2c1.05 4.39 5.95 3.49 9.93 3.04m953.95-358.59h-25.14a.68.68 0 0 1-.67-.59q-.51-3.56-.48-5.3.25-13.74.17-22.61a.49.49 0 0 0-.49-.49h-25.26a.61.61 0 0 0-.61.61v27.58a.8.79-90 0 1-.79.8h-18.07a.56.55 90 0 0-.55.56v21.5a.58.58 0 0 0 .58.58h18.24a.64.63 89.5 0 1 .63.63q.04 14.1-.01 44.49c0 2.63.59 5.77.84 7.83q.36 2.92 1.38 5.8c5.18 14.76 19.01 18 33.51 16.55q10.97-1.1 14.98-1.38a.71.71 0 0 0 .67-.71v-20.57a.59.59 0 0 0-.57-.59q-2.98-.07-12.82.08-6.59.11-9.51-5.42-2.03-3.83-2.05-6.51-.17-21.43-.11-39.86a.38.38 0 0 1 .38-.38h25.77a.42.42 0 0 0 .42-.42v-21.74a.44.44 0 0 0-.44-.44m-436.64 10.84a.61.61 0 0 1-1.01-.48l.28-9.97a.48.48 0 0 0-.48-.49h-25.93a.54.54 0 0 0-.54.54v96.82a.82.81-90 0 0 .81.82h25.6a.7.69 89.6 0 0 .69-.71q-.29-32.83-.13-52.74.06-7.11 1.24-10.22c4.78-12.62 19.68-14.82 29.45-6.49q4.96 4.23 4.91 10.42-.12 16.66-.2 59.26a.5.5 0 0 0 .5.5h25.04a.73.73 0 0 0 .73-.73q-.2-41.22-.21-57.03 0-5.78 2.62-9.79c3.01-4.61 9.36-7.36 14.57-7.59 7.73-.34 18.19 5.75 18.27 14.89q.23 29.08-.21 59.17a.99.99 0 0 0 .99 1.01h24.62a.37.36-90 0 0 .36-.37q-.15-18.46-.09-61.8.01-6.92-1.32-12.92c-3.55-16.04-16.69-24.7-32.65-24.82q-20.06-.15-30.79 16.19a.73.73 0 0 1-1.29-.15c-2.47-6.71-10.63-12.21-17.02-14.2-12.04-3.76-28.78-2.44-36.86 8.48q-1.48 1.99-1.95 2.4m150.02 3.86c-18.53 21.09-15.07 56.98 6.81 74.4 20.76 16.53 52.73 14.06 70.64-6.3 17.91-20.37 16.26-52.4-2.79-70.87-20.08-19.47-56.12-18.31-74.66 2.77m163.11 84.81c19.66-2.9 34.59-15.56 40.49-34.12 2.34-7.37 2.63-14.94 2.15-22.06q-.74-10.87-6.73-21.07-9.63-16.36-27.77-21.74c-6.89-2.04-14.51-2.31-22.11-1.82-31.53 2.05-49.04 31.15-43.47 60.78 4.4 23.37 23.82 40.19 48 40.24q7.86.02 9.44-.21m-447.26 81.42.03 30.38-.1 44.88a.54.53 0 0 0 .54.53h25.75a.39.38-90 0 0 .38-.39V427.3a.42.42 0 0 1 .42-.42h50.3a.52.52 0 0 0 .52-.52v-21.33a.61.61 0 0 0-.61-.61h-50.19a.42.41 0 0 1-.42-.41v-32.44a.47.46 0 0 1 .47-.46h59.41a.61.61 0 0 0 .61-.61v-21.53a.52.52 0 0 0-.52-.52h-86.1a.52.52 0 0 0-.52.52zm184.76 32.32c.61-13.11-.18-25.54-7.17-36.99-6.75-11.07-20.28-18.1-32.81-18.58q-10.68-.4-14.77.23c-21.66 3.35-35.27 18.64-38.88 39.95q-1.75 10.32.18 21.01c3.56 19.7 16.04 34.22 35.99 38.63q13.1 2.89 26.13.2 19.53-4.03 28.47-21.14a.71.71 0 0 0-.35-.98q-16.69-7.15-17.35-7.4-.65-.24-1.68-1.14a.65.64 38.4 0 0-.95.1q-7.53 10.41-20.56 10.15c-10.7-.22-20.65-4.99-23.97-15.46q-1.29-4.04-2.01-7.14a.78.78 0 0 1 .76-.96h68.46a.51.51 0 0 0 .51-.48m41.69-42.45q-.26-.43-.28-1.18-.06-3.77.16-9.93a.47.47 0 0 0-.47-.48h-24.22a.57.56-90 0 0-.56.57v96.78a.41.41 0 0 0 .41.41h24.23a.52.52 0 0 0 .52-.52q.02-41.63-.05-49.06-.06-5.69.81-8.48c2.76-8.91 8.74-14.98 18.34-16.09 11.28-1.3 20.56 3.56 22.36 15.46q.22 1.5.22 10.75-.02 42.05-.05 47.37a.55.55 0 0 0 .55.56h24.36a.16.15-90 0 0 .15-.16q-.17-51.56-.03-59.95.13-8.29-1.02-13.83c-3.13-15.04-14.31-24-29.14-25.31-13.7-1.22-26.81 1.96-35.44 13.13a.52.52 0 0 1-.85-.04m153.64 22.9.41-.31a1.12 1.09-68.9 0 1 .37-.17l21.2-4.92a.9.9 0 0 0 .66-1.14c-5.05-16.61-20.06-28.09-37.35-29.31q-10.43-.74-15.59.09-22.82 3.66-34.23 22.95c-10.19 17.25-9.57 41.44 1.83 57.58 11.22 15.89 28.44 22.03 47.55 20.04 18.21-1.89 32.18-11.71 38.17-29.24a.28.27-72.2 0 0-.18-.36l-21.83-6.62a.82.82 0 0 0-.87.26q-.68.81-1.98 3.07c-3.21 5.58-9.63 9.74-16.16 10.34-17.72 1.6-28.36-12.48-28.08-29.05.21-12.57 7.22-24.2 20.14-26.13 9.1-1.36 18.41 1.14 22.89 9.54q1.16 2.16 2.06 3.26a.73.72 51.8 0 0 .99.12m130.35 19.59c.61-13.11-.18-25.54-7.18-37-6.75-11.07-20.28-18.1-32.82-18.58q-10.68-.4-14.77.23c-21.67 3.36-35.28 18.65-38.89 39.97q-1.75 10.32.18 21.02c3.57 19.7 16.05 34.22 36.01 38.63q13.1 2.89 26.14.2 19.53-4.03 28.47-21.15a.71.71 0 0 0-.35-.98q-16.69-7.15-17.35-7.4-.65-.24-1.68-1.14a.65.64 38.4 0 0-.96.1q-7.53 10.41-20.56 10.16c-10.7-.22-20.66-4.99-23.98-15.47q-1.29-4.04-2.01-7.14a.79.78 83.5 0 1 .76-.96l68.48-.01a.51.51 0 0 0 .51-.48M846.48 584.53l-.76.32a2.4 2.32 27.5 0 1-.37.11l-17.11 3.3a.39.39 0 0 0-.3.47c3.11 13.37 14.94 23.34 28.32 24.8 4.95.54 14.33.68 19.98-.29 14.23-2.43 26.1-14.01 26.34-28.84.32-20.46-18.75-26.16-34.75-30.28-7.74-1.98-17.1-4.27-16.28-13.98.77-9.2 9.37-10.39 16.95-9.88 5.15.35 11.64 4.21 12.22 9.84a.69.69 0 0 0 .82.61l17.51-3.44a.73.72-3.3 0 0 .58-.64q.23-2.26-.71-4.59c-3.72-9.19-10.85-14.69-20.27-17.31q-5.66-1.57-8.11-1.77-9.04-.75-18.74 2.28c-10.24 3.18-17.73 9.95-20.22 20.63q-.17.73-.16 8.13c.01 9.32 5.34 16.63 13.55 20.81 8.56 4.35 18.85 6.14 26.73 8.72 5.25 1.72 10.84 4.47 10.65 11.02q-.25 8.45-8.57 11.06c-8.24 2.58-20.08 1.21-24.7-7.38q-1.82-3.39-1.83-3.42a.52.52 0 0 0-.77-.28m-53.61-69.28q-.12 24.6.04 58.36c.05 10.7-5.93 20.75-17 22.4q-12.51 1.87-20.52-7.37c-3.9-4.5-4.74-9.96-4.76-15.96q-.08-23.84.18-57.16a.89.89 0 0 0-.89-.89h-19.28a.61.61 0 0 0-.61.63q.28 6.87.27 14.24-.09 38.71.12 47.98c.38 16.43 7.99 28.15 23.49 34 6.6 2.48 13.69 2.49 21.09 2.35q19.82-.38 31.51-16.07 2.83-3.8 4.8-10.53 1.15-3.91 1.1-11.55-.1-14.99 0-60.75a.36.36 0 0 0-.36-.36h-18.49a.69.68 0 0 0-.69.68m164.14 77.4q17.37 0 19.04.01a.97.96-9.9 0 1 .9.62l7.35 19.78a.62.61 79.5 0 0 .57.4h18.94a.74.73-10.2 0 0 .69-.99l-36.17-97.34a.7.69 79.8 0 0-.64-.45q-5.32-.11-10.67-.11-5.36 0-10.68.11a.7.69-79.8 0 0-.64.45l-36.17 97.34a.74.73 10.2 0 0 .69.99h18.94a.62.61-79.5 0 0 .57-.4l7.35-19.78a.97.96 9.9 0 1 .9-.62q1.67-.01 19.03-.01"/><path fill="#000603" d="M1339.41 235.9a.47.47 0 0 0 .84.29c4.72-5.96 9.67-10.16 17.28-12.36 21.6-6.25 45.11 2.16 47.09 27.2.33 4.13.68 7.07.67 10.63q-.13 31.3.09 59.3a.66.66 0 0 1-.66.66h-24.48a.46.45.6 0 1-.46-.46q.25-29.08.06-57.91c-.06-7.68-5.45-14.19-13.24-16.11-8.86-2.19-18.74.71-23.41 9.03-3.02 5.37-3.76 9.06-3.75 15.66q.03 37.61.05 49.63a.22.22 0 0 1-.22.22h-24.63a.46.46 0 0 1-.46-.46V184.99a.62.61 90 0 1 .61-.62h24.29a.34.33 90 0 1 .33.34zm-1.01.58q-.37-.48-.39-1.73-.3-19.97.08-48.56a.5.49-89.4 0 0-.49-.51h-21.33a.43.43 0 0 0-.43.43v132.54a1 .99-.8 0 0 1.03.99q7.87-.21 17.57.05.99.02 2.09.64a.99.99 0 0 0 1.47-.88q-.15-9.03-.03-47.46.02-6.36.59-8.45.98-3.6 3.24-7.87c4.74-8.96 15.5-11.87 24.99-9.95 7.59 1.54 11.57 6.25 14.11 13.39 1.26 3.55 1.11 8.65 1.14 12.4q.27 35.2-.12 47.31a.8.79 1 0 0 .8.82h19.9a.61.6 0 0 0 .61-.6q.39-32.12.1-63.79c-.07-7.57-2.08-17.03-7.61-22.41q-6.34-6.17-13.52-7.95-9.82-2.44-22.21-.14-3.97.74-8.75 3.46c-3.99 2.27-7.28 6.19-10.13 8.57a1.9 1.9 0 0 1-2.71-.3"/><path fill="#13553a" d="M1338.4 236.48a1.9 1.9 0 0 0 2.71.3c2.85-2.38 6.14-6.3 10.13-8.57q4.78-2.72 8.75-3.46 12.39-2.3 22.21.14 7.18 1.78 13.52 7.95c5.53 5.38 7.54 14.84 7.61 22.41q.29 31.67-.1 63.79a.61.6 0 0 1-.61.6h-19.9a.8.79 1 0 1-.8-.82q.39-12.11.12-47.31c-.03-3.75.12-8.85-1.14-12.4-2.54-7.14-6.52-11.85-14.11-13.39-9.49-1.92-20.25.99-24.99 9.95q-2.26 4.27-3.24 7.87-.57 2.09-.59 8.45-.12 38.43.03 47.46a.99.99 0 0 1-1.47.88q-1.1-.62-2.09-.64-9.7-.26-17.57-.05a1 .99-.8 0 1-1.03-.99V186.11a.43.43 0 0 1 .43-.43h21.33a.5.49-89.4 0 1 .49.51q-.38 28.59-.08 48.56.02 1.25.39 1.73"/><path fill="#000603" d="m818.71 219.53-24.81 4.89a.79.79 0 0 1-.94-.81q.07-1.35-.21-2.12c-4.39-12.43-16.53-13.74-27.97-11.9-7.93 1.28-12.55 7.44-11.8 15.56.85 9.18 9.76 12.47 18 14.61 16.49 4.27 37.27 8.22 46.36 24.53 5.09 9.13 5.9 21.58 1.74 31.29-8.07 18.86-27.1 27.2-47.09 27.09-19.11-.11-36.45-6.8-46.23-23.42-2.38-4.05-1.82-7.41-1.69-12.2a1.33 1.33 0 0 1 1.07-1.27l21.14-4.16a1.59 1.59 0 0 1 1.89 1.38q.17 1.49.71 2.44c6.67 11.58 18.13 14.19 30.59 12.76q1.88-.21 6.23-2.52 8.18-4.32 8.8-13.06c.72-9.99-8.36-14.01-16.31-16.54-8.96-2.86-21.25-4.94-31.62-9.66q-20.08-9.12-20.92-31.38c-.63-16.41 10.43-30.23 25.42-35.49q25.02-8.79 47.53 2.31 16.36 8.06 20.66 26.82a.71.7 78.1 0 1-.55.85m-93.96 68.61q-.29 1.91.25 5.16c.97 5.74 6.71 12.47 10.61 15.64q10.49 8.54 25.31 11.48c4.77.95 9.64.4 14.49.47q3.87.05 8.13-.72c10.46-1.9 19.26-5.75 26.62-13.52q10.15-10.72 9.87-25.66-.19-10.11-4.7-17.14c-6.01-9.36-14.43-13.52-25-17.13q-5.05-1.73-19.12-5.35c-7.19-1.86-19.43-6.19-19.61-15.63-.07-3.98-.33-7.44 1.96-10.62 5.23-7.25 12.41-7.99 21.19-7.63q6.2.26 10.15 2.46 7.22 4.03 9.41 11.79a1.4 1.39 74.1 0 0 1.73.97q10.13-2.88 20.59-3.96a1.05 1.05 0 0 0 .86-1.48q-1.37-3.05-2.21-5.6c-2.15-6.54-7.55-12.44-12.96-16.01q-6.83-4.52-16.83-6.79c-2.4-.55-4.57-.16-7.1-1.06a2.7 2.7 0 0 0-.68-.15q-10.43-.88-20.31 1.48-14.98 3.57-24.08 15.21c-6.89 8.82-7.45 22.71-3.64 33.02 4.35 11.8 14.8 17.34 26.32 20.89q8.53 2.63 16.97 4.53c8.66 1.94 22.59 7.12 23.04 17.44.62 14.04-13.14 21.57-25.62 19.8q-8.11-1.15-10.2-2.22c-4.3-2.2-11.86-8.08-13.25-13.56a1.19 1.18 77.1 0 0-1.38-.87l-20.03 3.95a.97.97 0 0 0-.78.81"/><path fill="#13553a" d="M724.75 288.14a.97.97 0 0 1 .78-.81l20.03-3.95a1.19 1.18 77.1 0 1 1.38.87c1.39 5.48 8.95 11.36 13.25 13.56q2.09 1.07 10.2 2.22c12.48 1.77 26.24-5.76 25.62-19.8-.45-10.32-14.38-15.5-23.04-17.44q-8.44-1.9-16.97-4.53c-11.52-3.55-21.97-9.09-26.32-20.89-3.81-10.31-3.25-24.2 3.64-33.02q9.1-11.64 24.08-15.21 9.88-2.36 20.31-1.48a2.7 2.7 0 0 1 .68.15c2.53.9 4.7.51 7.1 1.06q10 2.27 16.83 6.79c5.41 3.57 10.81 9.47 12.96 16.01q.84 2.55 2.21 5.6a1.05 1.05 0 0 1-.86 1.48q-10.46 1.08-20.59 3.96a1.4 1.39 74.1 0 1-1.73-.97q-2.19-7.76-9.41-11.79-3.95-2.2-10.15-2.46c-8.78-.36-15.96.38-21.19 7.63-2.29 3.18-2.03 6.64-1.96 10.62.18 9.44 12.42 13.77 19.61 15.63q14.07 3.62 19.12 5.35c10.57 3.61 18.99 7.77 25 17.13q4.51 7.03 4.7 17.14.28 14.94-9.87 25.66c-7.36 7.77-16.16 11.62-26.62 13.52q-4.26.77-8.13.72c-4.85-.07-9.72.48-14.49-.47q-14.82-2.94-25.31-11.48c-3.9-3.17-9.64-9.9-10.61-15.64q-.54-3.25-.25-5.16"/><path fill="#00452a" d="M505.63 582.15q2.75-11.14 3.57-22.54a.3.3 0 0 0-.42-.3q-13.15 5.81-25.31 7.83c-20.92 3.49-44.7 2.15-64.9-6.01a1.07 1.06-52.2 0 1-.23-1.84l.98-.74a1.22 1.21 29.8 0 1 .85-.23c2.79.29 6.19 1.53 9.19 2.06q21.62 3.84 39.39 2.72 16.53-1.04 32.61-6.51 2.63-.89 6.89-2.81a2.94 2.94 0 0 0 1.73-2.41q1.51-15.89.73-32.42a.58.58 0 0 0-.85-.48q-7.89 4.26-15.74 6.42c-17.11 4.71-35.68 5-52.56 1.98q-10.96-1.96-14.13-2.8-3.2-.84-5.22-2.19a1.08 1.08 0 0 1 .02-1.81q.52-.33.77-.29c28.85 5.38 59.33 6.28 86.26-7.11a1.49 1.47-15.7 0 0 .82-1.44q-1.2-16.88-5.16-34.44a.46.45 72.2 0 0-.62-.32q-7.64 3.18-10.01 4.07c-20.93 7.89-42.85 8.03-64.74 3.71-2.7-.54-5.5-1.5-8.27-2.27q-.08-.71.15-1.44 1.38-1.59 2.83-1.33c25.9 4.61 54.31 4.01 78.21-8.54a1.14 1.14 0 0 0 .59-1.28q-3.25-13.59-9.46-28.72-.83-2.03-1.44-2.94a.71.7-27 0 0-.84-.27q-3.36 1.27-6.35 2.56c-17.91 7.72-41.02 8.26-60.28 4.8q-3.03-.55-5.33-1.98a1.02 1.01-35.9 0 1 .3-1.85l1.85-.44a1.58 1.53 41.4 0 1 .63-.03c15.79 2.24 32.67 2.07 48.66-1.49q9.98-2.21 17.95-7.32a1.04 1.03 60.9 0 0 .37-1.32q-6.27-12.86-14.34-25.44a.88.87-27.5 0 0-1.05-.33q-27.68 10.88-57.98 3.74a3.96 3.89-11.3 0 1-2.25-1.47l-.7-.94a1.07 1.07 0 0 1 1.05-1.69q16.3 3.07 31.42 1.78 13.77-1.18 26.05-7.14a.59.59 0 0 0 .28-.78q-3.32-7.06-5.99-13.47-1.63-3.93-1.78-8.17a.43.43 0 0 0-.55-.4q-18.13 5.23-36.79 4.49-13.34-.54-26.18-5.92-6.56-3.13-9.97-5.48c-5.37-3.69-11.81-11.42-12.55-18.45a.69.69 0 0 1 1.07-.65q.74.48 1.51.14.41 1.65 1.12 2.57c9.16 11.95 21.16 17.09 35.88 19.57 18.32 3.08 38-1.25 55.8-6.69q5.25-1.61 11.26-2.22 18.78-1.89 28.73-2.56c16.03-1.07 30.76-2.87 42.02-5q4.2-.79 12.4-3.3 6.24-1.91 9.92-7.01a.44.43 16.2 0 0-.38-.69c-8.74.57-17.07-.49-25.86-.91-3.3-.16-7.83 1.79-10.48 2.35q-6.62 1.42-13.21 3.02-1.94.47-3.58.39-10.73-.57-22.77-2.47-7-1.11-12.19-2.71-7.02-2.16-12.71-2.47a.63.63 0 0 0-.63.45c-1.1 3.77-2.12 10.54-6.35 9.5a2.6 2.57-20.5 0 1-.78-.35q-5.34-3.6-10.31-9.13a.97.97 0 0 0-.92-.31c-12.2 2.5-21.71 3.45-33.29 1.19q-14.44-2.82-24.5-12.54c-2.38-2.29-6.2-6.42-6.27-10.24a.84.84 0 0 0-1.38-.62l-12.5 10.82q-2.2-.79-2.25-2.05-.12-2.73 1.49-5.66c4.81-8.74 15.34-13.18 25.04-10.72q2.15.55 5.93 4.5a.37.37 0 0 1-.27.63q-.1 0-1.46-1.15a1.1 1.07 58.3 0 0-.92-.23l-8.69 1.71a.55.55 0 0 0-.33.88q8.02 10.15 19.15 14.83c11.48 4.83 26.07 4.4 38.28 1.3 8.81-2.24 21.42-2.66 31.33.38 8.04 2.47 18.7 4.98 29.56 6.19 9.08 1.02 17.99-.86 26.95-3.43q7.31-2.11 11.06-1.73 14.31 1.44 28.25.16 8.71-.8 13.53-3.62 9.18-5.36 12.03-16.54c1.57-6.17 1.11-19.21-5.96-22.45q-1.36-.62-3.9-.9-11.32-1.23-16.5 7.52a1.56 1.56 0 0 1-2.49.27q-5.67-6.1-14.71-5.59-6.2.35-14.25 5.24a6.23 6.16-86.4 0 0-1.67 1.49q-4.18 5.34-7.38 12.37a.6.6 0 0 1-1.05.07q-.3-.48-.35-1.32-.41-6.74 3.26-12.59a.43.42-64.6 0 0-.22-.63q-2.79-.9-4.94-1.03c-7.26-.44-18.65-2.83-27.65-2.01q-6.28.57-10.85 4.91a.4.39 75.9 0 1-.65-.39q1.01-3.87 4.32-6.29a.38.38 0 0 0-.15-.68c-7.04-1.41-13.58-3.65-20.49-3.84q-6.98-.19-10.69.09c-2.01.15-3.06-.43-4.39-1.76q-4.42-4.4-2.63-11.21a2.81 2.76-20.5 0 1 .44-.94q3.02-4.34 4.43-5.53 2.32-1.97 4.39-1.31 6.39 5.18 5.06 11.67-.43 2.12-.73 3.06a.44.44 0 0 0 .48.57l7.88-1.03a.45.44-9.9 0 0 .38-.54l-3.43-14.8c-.61-8.08-7.04-12.18-14.62-9.22-8.47 3.32-15.13 8.05-14.46 18.06a.34.34 0 0 1-.51.32c-1.3-.73-2.52-1.21-3.77-2.71q-11.62-13.84-30.57-12.32-6.11.49-9.66 2.93c-6.59 4.52-8.79 12.87-11.51 21.01a.67.67 0 0 1-1.14.23q-.39-.44-.48-1.2-.76-5.92.15-11.69a.49.49 0 0 0-.59-.56q-6.59 1.47-15.87 4.03c-17.32 4.79-31.42 12.01-36.72 30.29-3.72 12.86-2.6 24.94.67 38.37q3.77 15.46 11.51 31.65 2.67 5.59 4 10.34a2.81 2.8 63.9 0 1-1.03 3.02c-8.81 6.55-15.71 12.31-25.41 19.22q-9.94 7.08-15.85 12.02-13.26 11.08-23.92 24.23c-6.12 7.54-11.21 17.9-9.3 27.83a6.42 6.11 27.6 0 0 .53 1.56c6.21 12.52 14.82 21.55 27.13 28.17q21.43 11.52 30.38 17.83.75.53 2.98 3.4a.32.31 71.4 0 1-.25.51q-3.23-.06-3.78-.26-7.14-2.58-12.99-3.42a.55.54-82.3 0 0-.62.48l-.81 6.54a2.7 2.7 0 0 0 1.2 2.58q7.4 4.79 14.73 6.48a1.25 1.21 69.7 0 1 .44.21l2.75 1.99a.52.52 0 0 1-.27.94q-2.16.16-6.22.06c-3.95-.1-9.27-2.04-12.61-2.29a.51.51 0 0 0-.55.48q-.2 3.61 1.93 5.34c2.36 1.9 5.07 3.21 7.88 3.22q6.56.03 13.95-3.28c8.2-3.66 15.51-8.98 15.76-18.16.16-5.49-.79-13.4-2.05-18.53-1.12-4.57-4.52-7.43-6.82-11.29-4.71-7.91-11.06-14.6-17.97-20.96-1.37-1.26-2.62-2.85-3.25-4.39a1.42 1.41-30.8 0 1 .42-1.65q14.78-12.07 31.84-24.59 2.02-1.49 4.14-2.18a.61.61 0 0 1 .76.8q-3.23 8.31-8.09 16.26a4.64 4.62-25 0 0-.64 1.75q-1.07 7.25-.9 24.64.03 3 1.2 4.56c8 10.68 11.92 24.3 9.88 37.76-1.04 6.9-3.14 12.02-8.83 16.45q-8.61 6.7-18.38 9.38a.65.65 0 0 0-.47.6l-.65 26.68c-3.98.45-8.88 1.35-9.93-3.04a1.06.96 42.1 0 1-.02-.2l.6-21.04a1.25 1.24-83.5 0 0-1.01-1.27c-8.95-1.71-17.32-7.38-17.83-17.3a.05.03-80.8 0 0-.02-.04l-.45-.19a.29.28 11.6 0 0-.4.26v39.35a3.84 3.84 0 0 1-4.21 3.82l-.62-.06a4.23 4.22-87.2 0 1-3.81-4.21v-65.58a1.16 1.14-73.4 0 0-.51-.96q-6.81-4.6-11.35-8.24-7.89-6.35-15.16-16.32-5.18-7.11-6.04-13.49-1.12-8.27 1.42-14.81 5.72-14.72 16.7-25.5 7.26-7.12 15.75-15.4a2.08 2.07 65.4 0 0 .62-1.68c-.14-1.61-.48-3.89-.48-5.22q.08-29.61-.07-62.82a.42.38-65.1 0 0-.07-.23l-18.23-24.44a.5.5 0 0 0-.8 0q-8.34 11.08-15.4 21.09-1.29 1.82-1.99 3.35a.76.7-34.6 0 0-.07.31l-.34 229.91a4.35 4.34-1.2 0 1-4.15 4.33l-.54.02a3.74 3.73-1.3 0 1-3.91-3.73v-39.95a.74.74 0 0 0-.72-.74l-10.45-.3a.42.41.7 0 0-.43.41v39.99a4.16 4.16 0 0 1-4.28 4.16l-.68-.02a3.79 3.79 0 0 1-3.68-3.79V348.15a1.53 1.51 27.4 0 0-.29-.89l-17.39-24.2a.54.54 0 0 0-.87 0l-16.93 23.31a1.16 1 72.9 0 0-.18.41q-.52 2.57-.52 5.72-.03 24.38-.03 224.48a5.52 5.52 0 0 1-4.27 5.38l-.42.1a3.47 3.47 0 0 1-4.25-3.38v-39.81a.58.58 0 0 0-.59-.58q-7.77.21-13.5.14c-2.82-.03-3.61-.95-3.61-3.85q0-15.24.21-24.71c.06-2.66.02-6.01 2.33-7.31a1.47 1.44 33.1 0 1 .86-.17c4.71.61 9.3-.48 14.1-.62a.43.42-.7 0 0 .42-.42v-87.13a.75.75 0 0 0-.74-.75q-10.99-.08-12.1-.01-4.56.29-4.56-4.13.02-13.53-.04-26.9-.02-3.77 3.9-3.44 6.07.51 12.86.24a.49.48 88.8 0 0 .46-.49q-.1-8.55.02-32.48.01-2.08 1.54-4.27 8.42-12.02 17.56-23.81c1.76-2.27 3.26-5.42 5.09-7.42a2.62 2.58 6.2 0 1 .67-.53c3.42-1.92 6.08.93 7.8 3.64q8.35 13.25 20.16 29.83 1.27 1.77 1.32 4.65.14 7.26-.03 30.31a.58.58 0 0 0 .57.58l10.23.3a.49.49 0 0 0 .5-.48q.34-17.1-.35-31.94-.1-2.05 1.37-4.24 5.63-8.42 16.47-22.39 1.89-2.43 2.78-3.93c1.67-2.81 3.94-6.91 7.27-5.93q1.43.42 3.76 3.61 12.66 17.35 18.44 24.83c2.1 2.73 4.12 5 4.12 9.29q0 14.88-.04 32.07a.63.62 86.5 0 0 .71.63l12.51-1.63a.56.55-4 0 0 .49-.56c-.14-6.36 3.79-11.64 7.59-16.53a1.39 1.38 57.8 0 0 .26-1.17l-1.23-5.3a1.19 1.16-84.3 0 0-.63-.79l-5.78-2.75a.91.75-5.7 0 1-.18-.12c-7.9-6.09-2.95-15.03 1.93-22.05q1.31-1.88 1.1-5.51a1.26 1.26 0 0 0-.88-1.13c-2.65-.79-4.73-2.02-4.99-4.93-.63-6.95 2.08-11.4 7.32-15.72 2.53-2.08 3.14-3.63 4.23-6.33a.4.4 0 0 0-.38-.55q-7.06.21-15.07-1.27c-6.53-1.2-14.3-2.04-18.77-6.99-2.85-3.15-2.21-8.3.81-10.98q3.58-3.2 8.51-6 14.45-8.21 29.74-13.51c4.43-1.54 4.65-3.34 4.77-7.9.26-10.31 2.36-17.41 4.77-27.76 2.19-9.4 6.9-17.95 15.16-23.77 7.05-4.96 17.85-6.16 26.42-5.76q8.57.39 20.65 1.46a8.83 8.8-52.1 0 0 3.72-.47q4.59-1.63 11.56-3.97 8.09-2.71 14.73.59 4.65 2.31 10.21 10.35 9.24 13.35 16.54 28.28a1.49 1.48 76.1 0 0 1.36.83q26.62-.41 49.71 1.54c4.04.34 11.2 1.54 13.98 4.94 3.51 4.3.93 8.21-2.97 10.74q-6.62 4.28-15.01 7.48-9.49 3.61-28.58 10.53a.96.95-20.4 0 0-.57 1.24q3.04 7.84 4.21 17.91a2.12 2.12 0 0 0 1.85 1.86l50.18 6.23a5.94 5.88-47.1 0 0 1.93-.08q.35-.07 5.59-2.32 5.5-2.36 12.24-1.63c3.16.34 5.74 1.72 9.68 3.39a1.03 1.01 39.7 0 0 .95-.08q4.37-2.67 6.78-3.65c8.08-3.27 15.17-3.9 23.16 1.28q5.45 3.52 7.41 10.35c3.42 11.89 1.23 24.37-7 33.44q-8.78 9.68-22.81 11.32a.51.51 0 0 0-.45.41q-2.01 10.24-10.72 14.74-6.44 3.33-15.33 5.26-4.8 1.04-16.12 2.57-19.05 2.56-41.6 3.95-4.23.26-9.98 3.37-7.67 4.14-15.33 9.97a.86.86 0 0 0-.17 1.19l6.44 8.62a2.91 2.88-8.8 0 0 1.44 1.04q17.89 5.77 32.71 17.73 5.64 4.56 26.74 22.52c2.2 1.87 6.27 2.75 9.62 2.9q25.27 1.1 38.52 2.25a2.28 2.27-66.7 0 0 1.9-.76q6.46-7.31 14.6-12.97 5.77-4.02 12.83-4.34a.79.79 0 0 0 .72-.58q14.03-50.71 15.49-56.06c.62-2.26 2.02-2.71 4.34-2.74 4.3-.06 8.13 1.66 12.03 2.59q4.38 1.04 22.98 6 5.28 1.41 5.67 1.73 2.23 1.81 1.23 5.41-11.89 42.95-18.12 66.47a.65.65 0 0 0 .42.78q8.46 2.83 8.1 11.36-.24 5.59-5.43 10.92a.64.63 57.4 0 0-.14.65q2.08 6.07-.35 9.91-4.3 6.79-12.53 9.7a2.24 2.23-2.1 0 0-1.41 1.51l-28.58 103.52a3.48 3.47-84.9 0 1-3.03 2.54q-2.59.24-4.21-.22-23.5-6.7-38.16-11.15-2.71-.82-2.23-4.3c.62-4.47 2.09-8.21 3.41-13.05q9.35-34.08 20.63-76.26a.59.58 16.3 0 0-.39-.7q-6.59-2.14-13.11-.4c-6.37 1.69-12.64 2.71-21.93 4.37q-24.23 4.33-48-1.15a.42.42 0 0 0-.51.46q1.61 13.7 2.59 24.1c1.55 16.48-.4 33.71-2.05 48.64q-.66 5.96-2.56 12.62c-1.08 3.76-5.27 4.13-8.28 2.84a.89.86-38.3 0 0-.5-.05zM358.45 250.67q11.15-4.67 12.92-5.28 22.23-7.69 45.51-11.8c15.94-2.81 28.66-3.51 45.84-4.75a.78.77 73.7 0 0 .62-1.14q-4.97-9.34-10.88-18.89c-2.34-3.8-7.34-11.06-11.87-12.64a2.14 2.09-42.6 0 0-1.24-.04q-8.69 2.39-13.81 4.21-4.15 1.48-6.47 1.55c-16.16.44-40.36-6.58-50.57 9.08q-1.15 1.77-3.18 5.64a9.02 8.09-25.2 0 0-.52 1.23q-2.06 6.34-6.29 25.92-.87 4.02-.68 6.53a.45.45 0 0 0 .62.38m-40.58 30.02c9.06.21 16.51-1.42 24.98-3.45a10.15 9.97-65.2 0 0 2.28-.86q1.93-1 3.08-1.4 17.46-5.95 28.81-9.4c18.84-5.71 34.79-10.13 51.72-11.87q29.25-3.01 33.45-3.63c3.41-.5 6.84-.03 10.26-.94q1.3-.34 4.38-.87 29.41-5.01 43.27-7.4a.34.34 0 0 0 .02-.67q-4.46-.99-8.37-1.26-26.75-1.85-51-.93-22.83.87-40.16 3.92-28.73 5.04-58.44 16.77c-7.5 2.96-14.28 7.36-22.33 9.98a8.09 7.39-66 0 0-1.28.56q-10.06 5.6-18.9 9.37-1.4.59-2.04 1.58a.33.32 17.1 0 0 .27.5m152.83 64.95 1.3-4.04a.27.27 0 0 0-.17-.34l-.12-.04a6.9 2.36 17.9 0 0-7.29.13l-.02.06a6.9 2.36 17.9 0 0 5.84 4.36l.12.04a.27.27 0 0 0 .34-.17m204.242 34.432a.5.5 0 0 0-.353-.613l-29.905-8.013a.5.5 0 0 0-.613.354l-.693 2.588a.5.5 0 0 0 .353.613l29.905 8.013a.5.5 0 0 0 .613-.354zM473.33 374.2a.87.64.7 0 0-.862-.651.87.64.7 0 0-.878.63.87.64.7 0 0 .862.65.87.64.7 0 0 .878-.63M620.7 578.35a.42.42 0 0 0 .52-.3l16.12-58.37a1.47 1.47 0 0 0-1.23-1.85l-8.96-1.11a2.42 2.42 0 0 1-2.12-2.54c.23-4.22 2-8.18 2.75-12.1q1.21-6.3 3.73-13.58c1.14-3.29-.73-7.88-.15-11.02q.85-4.59 4.61-8.24a1.27 1.27 0 0 0 .3-1.38q-2.06-5.12.48-9.71c4.32-7.8 10.21-9.09 19.06-12.14a1.48 1.46 88.5 0 0 .93-.99l15.76-57.07a.59.59 0 0 0-.44-.73c-7.89-1.81-11.72-3.19-19.64-4.98q-2.83-.64-9.42-2.9a1.09 1.09 0 0 0-1.41.74l-12.16 44.04a1.65 1.63-68.6 0 0 .82 1.9c6.38 3.36 10.49 8.83 9.04 16.54-1.78 9.45-10.19 14.68-19.18 15.35a.79.77-84 0 0-.69.57l-30.6 110.82a.24.23-75.1 0 0 .16.29zM252.85 388.22l-.18 17.22a.3.3 0 0 0 .3.3l8.09.09a2.75 1.77.6 0 0 2.76-1.74l.15-14.28a2.75 1.77.6 0 0-2.73-1.8l-8.09-.08a.3.3 0 0 0-.3.29m-54.305.302a.32.32 0 0 0-.32-.32l-8.32.015a.32.32 0 0 0-.32.32l.03 17.08a.32.32 0 0 0 .32.32l8.32-.014a.32.32 0 0 0 .32-.32zM342.9 391.79l-2.72-2.81a1.6 1.59 67.7 0 0-1.14-.48h-20.66a.49.49 0 0 0-.49.49v18.32a.32.32 0 0 0 .29.32q4.33.46 7.85-1.6 9.99-5.89 16.84-12.59a1.17 1.17 0 0 0 .03-1.65m144.7 15.32q.55 1.37 1.09 2.28 13.18 22.45 18.84 40.55 4.66 14.91 8.62 30.62.38 1.5 1.34 2.61a2.02 2.01 77.1 0 0 1.02.64q18.61 5.03 37.79 2.79c13.52-1.57 21.32-3.22 36.41-6.41a4.65 4.58-45.5 0 1 1.78-.03l9.32 1.67a.61.6-76.9 0 0 .69-.44l7.24-26.21a1.57 1.56 31.7 0 0-.35-1.47q-1.83-2.02.21-4.48 1.02-1.23 2.73-.64 2.45.85 4.66 1.11 7.55.91 11.17-4.81c1.68-2.68 1.7-5.83.6-8.6-1.59-3.99-6.77-6.07-10.8-5.65q-7.15.75-11.79 6.04-4 4.56-9.08 9.69c-3.06 3.09-5.91 2.49-10.68 2.33q-16.52-.55-39.87-2.78c-9.9-.94-14.24-5.64-21.8-12.84q-5.03-4.78-18.91-15.73-8.95-7.06-19.84-10.66a.32.32 0 0 0-.39.42m-223.443 7.4a.68.68 0 0 0-.68-.681l-10.2-.018a.68.68 0 0 0-.68.679l-.154 87.94a.68.68 0 0 0 .68.681l10.2.018a.68.68 0 0 0 .68-.679zm399.393 38.11c-5.66-.57-13.12 1.79-18.24 4.19a2.54 2.53-7.7 0 0-1.41 1.84l-.95 5.29a.73.73 0 0 0 .06.44q1.6 3.14 5.52 3.02c4.18-.12 11.1-.7 14.23-3.62 2.85-2.66 5.24-7.64 1.83-10.7a1.87 1.82 68.1 0 0-1.04-.46m-23.51 20.52-1.44 5.22a3.17 3.17 0 0 0 1.25 3.45c7.2 5.02 15.23 1.7 20.1-5.09q1.03-1.45.93-2.78a1.23 1.23 0 0 0-1.58-1.09q-6.75 2.01-12.55 2.26-2.02.09-4.54-2.53a1.3 1.29-59.3 0 0-2.17.56m4.45 18.18-5.81-1.04a.77.76-75.7 0 0-.85.51q-2.38 7.05-4.11 15.7-.4 1.99-.21 2.97a1.05 1.05 0 0 0 1.17.84l4.6-.6a.98.98 0 0 0 .83-.72l4.73-17.1a.45.45 0 0 0-.35-.56m-446.2 38.46a.68.68 0 0 0 .59-.68v-17.63a.68.68 0 0 0-.77-.67l-8.53 1.1a.68.68 0 0 0-.59.68v17.64a.68.68 0 0 0 .77.67zm54.66-18.62a.94.94 0 0 0-.94.94v16.66a.94.94 0 0 0 .94.94h9.85a.94.94 0 0 0 .94-.91l.46-16.66a.94.94 0 0 0-.94-.97zm65.01 18.88c.3-3.85-.55-6.83 1.88-10.74a.64.63 32.3 0 0-.2-.87q-.34-.21-1.67-.62a.42.42 0 0 0-.55.39l-.38 11.82a.03.02 31.7 0 0 .01.02l.51.23a.28.28 0 0 0 .4-.23m301.697 54.134a.71.71 0 0 0-.48-.882l-30.794-9.063a.71.71 0 0 0-.882.48l-.858 2.917a.71.71 0 0 0 .48.882l30.794 9.063a.71.71 0 0 0 .882-.48z"/><path fill="#000603" d="M1300.25 223.65a.44.44 0 0 1 .44.44v21.74a.42.42 0 0 1-.42.42h-25.77a.38.38 0 0 0-.38.38q-.06 18.43.11 39.86.02 2.68 2.05 6.51 2.92 5.53 9.51 5.42 9.84-.15 12.82-.08a.59.59 0 0 1 .57.59v20.57a.71.71 0 0 1-.67.71q-4.01.28-14.98 1.38c-14.5 1.45-28.33-1.79-33.51-16.55q-1.02-2.88-1.38-5.8c-.25-2.06-.84-5.2-.84-7.83q.05-30.39.01-44.49a.64.63 89.5 0 0-.63-.63h-18.24a.58.58 0 0 1-.58-.58v-21.5a.56.55 90 0 1 .55-.56h18.07a.8.79 90 0 0 .79-.8v-27.58a.61.61 0 0 1 .61-.61h25.26a.49.49 0 0 1 .49.49q.08 8.87-.17 22.61-.03 1.74.48 5.3a.68.68 0 0 0 .67.59zm-51.1-26.19q.13.26.16 1.04.5 10.42.29 23c-.03 1.75-.7 3.64-2.5 3.62q-10.64-.07-15.31-.17a1.39 1.39 0 0 0-1.42 1.39v17.82a.51.49-3.1 0 0 .56.49q8.61-.94 16.58-.19a2.14 2.13 82.3 0 1 1.81 1.39q.83 2.29.75 4.4-.41 11.33.01 43.24.15 11.39 5.87 19.18a3.9 3.77 2.1 0 0 .7.73q4.75 3.84 10.32 5.38c5.76 1.58 10.99 1.06 18.91.66q6.03-.31 9.82-1.02a1.34 1.34 0 0 0 1.1-1.32v-15.59a1.44 1.44 0 0 0-1.58-1.43c-6.04.59-11.53.76-16.94-1.95a2.89 2.74-4.9 0 1-.9-.72q-4.32-5.24-4.87-10.19-.56-5.04.1-35.47.07-3.13-.21-5.66a1.4 1.39 86.6 0 1 1.37-1.55c5.42-.02 8.3.25 13.63-.28q5.11-.51 10.23.59a1.48 1.48 0 0 0 1.79-1.45v-17.92a.61.61 0 0 0-.61-.61h-24.34a1.72 1.72 0 0 1-1.72-1.72v-25.78a1.02 1.02 0 0 0-1.02-1.02l-21.85-.07a.82.82 0 0 0-.73 1.18"/><path fill="#fff" d="M357.83 250.29q-.19-2.51.68-6.53 4.23-19.58 6.29-25.92a9.02 8.09-25.2 0 1 .52-1.23q2.03-3.87 3.18-5.64c10.21-15.66 34.41-8.64 50.57-9.08q2.32-.07 6.47-1.55 5.12-1.82 13.81-4.21a2.14 2.09-42.6 0 1 1.24.04c4.53 1.58 9.53 8.84 11.87 12.64q5.91 9.55 10.88 18.89a.78.77 73.7 0 1-.62 1.14c-17.18 1.24-29.9 1.94-45.84 4.75q-23.28 4.11-45.51 11.8-1.77.61-12.92 5.28a.45.45 0 0 1-.62-.38"/><path fill="#13553a" d="M1249.15 197.46a.82.82 0 0 1 .73-1.18l21.85.07a1.02 1.02 0 0 1 1.02 1.02v25.78a1.72 1.72 0 0 0 1.72 1.72h24.34a.61.61 0 0 1 .61.61v17.92a1.48 1.48 0 0 1-1.79 1.45q-5.12-1.1-10.23-.59c-5.33.53-8.21.26-13.63.28a1.4 1.39 86.6 0 0-1.37 1.55q.28 2.53.21 5.66-.66 30.43-.1 35.47.55 4.95 4.87 10.19a2.89 2.74-4.9 0 0 .9.72c5.41 2.71 10.9 2.54 16.94 1.95a1.44 1.44 0 0 1 1.58 1.43v15.59a1.34 1.34 0 0 1-1.1 1.32q-3.79.71-9.82 1.02c-7.92.4-13.15.92-18.91-.66q-5.57-1.54-10.32-5.38a3.9 3.77 2.1 0 1-.7-.73q-5.72-7.79-5.87-19.18-.42-31.91-.01-43.24.08-2.11-.75-4.4a2.14 2.13 82.3 0 0-1.81-1.39q-7.97-.75-16.58.19a.51.49-3.1 0 1-.56-.49v-17.82a1.39 1.39 0 0 1 1.42-1.39q4.67.1 15.31.17c1.8.02 2.47-1.87 2.5-3.62q.21-12.58-.29-23-.03-.78-.16-1.04"/><path fill="#000603" d="M863.61 234.49q.47-.41 1.95-2.4c8.08-10.92 24.82-12.24 36.86-8.48 6.39 1.99 14.55 7.49 17.02 14.2a.73.73 0 0 0 1.29.15q10.73-16.34 30.79-16.19c15.96.12 29.1 8.78 32.65 24.82q1.33 6 1.32 12.92-.06 43.34.09 61.8a.37.36-90 0 1-.36.37H960.6a.99.99 0 0 1-.99-1.01q.44-30.09.21-59.17c-.08-9.14-10.54-15.23-18.27-14.89-5.21.23-11.56 2.98-14.57 7.59q-2.62 4.01-2.62 9.79.01 15.81.21 57.03a.73.73 0 0 1-.73.73H898.8a.5.5 0 0 1-.5-.5q.08-42.6.2-59.26.05-6.19-4.91-10.42c-9.77-8.33-24.67-6.13-29.45 6.49q-1.18 3.11-1.24 10.22-.16 19.91.13 52.74a.7.69 89.6 0 1-.69.71h-25.6a.82.81 90 0 1-.81-.82v-96.82a.54.54 0 0 1 .54-.54h25.93a.48.48 0 0 1 .48.49l-.28 9.97a.61.61 0 0 0 1.01.48m55.09 4.08q-7.43-12.44-20.93-14.48c-10.5-1.58-21.62-.5-29.4 7.06q-.46.45-3.99 4.11a1.75 1.75 0 0 1-2.9-.58c-.78-2-.04-6.38.08-8.94a.62.61 1.3 0 0-.62-.64h-22.32a1.05 1.05 0 0 0-1.04 1.17q.22 1.73.32 6.6c.31 14.91.06 41.85.19 64.05q.1 15.47.03 19.82-.04 2.58 1.97 2.58 15.08.04 19.78.24a1.19 1.18 86.1 0 0 1.22-1.4c-.45-2.45.01-5.2.01-7.08q.12-27.15.06-44.58-.03-8.33 4.15-13.84c8.87-11.71 28.25-9.48 34.09 4.65q.96 2.34.99 7.55.08 12.06.06 14.64-.04 4.69.18 9.49c.4 8.85.25 20.47.24 26.13l-.17.98q-.26 1.51.77 2.85a.63.62 70.4 0 0 .49.24h19.45a.7.7 0 0 0 .7-.7q-.09-22.27.34-53.74.07-5.41 2.66-10.39c4.14-7.99 16.43-11.26 24.4-7.97q4.22 1.74 7.5 5.39c3.31 3.69 4.3 5.73 4.43 10.7q.21 8.55.3 22.27.02 2.42-.43 34.21-.01.65.66.69.22.02.61-.18a.61.6 32.6 0 1 .32-.07l20.45.3a.51.51 0 0 0 .51-.52q-.4-22.17-.01-44.05.18-10.01-.2-19.8c-.48-12.13-4.69-22.75-16.19-28.24q-4.3-2.06-5.78-2.4-6.42-1.49-14.35-.91-16.43 1.2-25.04 14.76-1.1 1.73-3.11.51a1.4 1.4 0 0 1-.48-.48M1091.08 306.45c-17.91 20.36-49.88 22.83-70.64 6.3-21.88-17.42-25.34-53.31-6.81-74.4 18.54-21.08 54.58-22.24 74.66-2.77 19.05 18.47 20.7 50.5 2.79 70.87m-30.93 15.19c19.09-2.82 33.59-15.12 39.32-33.14 2.27-7.16 2.55-14.51 2.09-21.42q-.72-10.56-6.54-20.47-9.35-15.88-26.97-21.11c-6.69-1.98-14.09-2.24-21.47-1.76-30.62 1.99-47.63 30.25-42.21 59.03 4.27 22.69 23.13 39.03 46.61 39.07q7.64.02 9.17-.2M1217.23 289.04c-5.9 18.56-20.83 31.22-40.49 34.12q-1.58.23-9.44.21c-24.18-.05-43.6-16.87-48-40.24-5.57-29.63 11.94-58.73 43.47-60.78 7.6-.49 15.22-.22 22.11 1.82q18.14 5.38 27.77 21.74 5.99 10.2 6.73 21.07c.48 7.12.19 14.69-2.15 22.06m-38.25 32.2c18.89-3.76 32.73-16.75 37.53-35 1.91-7.25 1.82-14.59 1.01-21.46q-1.25-10.48-7.54-20.06-10.12-15.37-27.94-19.69c-6.77-1.64-14.16-1.53-21.49-.68-30.42 3.52-45.95 32.54-39.12 60.95 5.4 22.4 25.02 37.74 48.43 36.61q7.61-.37 9.12-.67"/><path fill="#13553a" d="M919.18 239.05q2.01 1.22 3.11-.51 8.61-13.56 25.04-14.76 7.93-.58 14.35.91 1.48.34 5.78 2.4c11.5 5.49 15.71 16.11 16.19 28.24q.38 9.79.2 19.8-.39 21.88.01 44.05a.51.51 0 0 1-.51.52l-20.45-.3a.61.6 32.6 0 0-.32.07q-.39.2-.61.18-.67-.04-.66-.69.45-31.79.43-34.21-.09-13.72-.3-22.27c-.13-4.97-1.12-7.01-4.43-10.7q-3.28-3.65-7.5-5.39c-7.97-3.29-20.26-.02-24.4 7.97q-2.59 4.98-2.66 10.39-.43 31.47-.34 53.74a.7.7 0 0 1-.7.7h-19.45a.63.62 70.4 0 1-.49-.24q-1.03-1.34-.77-2.85l.17-.98c.01-5.66.16-17.28-.24-26.13q-.22-4.8-.18-9.49.02-2.58-.06-14.64-.03-5.21-.99-7.55c-5.84-14.13-25.22-16.36-34.09-4.65q-4.18 5.51-4.15 13.84.06 17.43-.06 44.58c0 1.88-.46 4.63-.01 7.08a1.19 1.18 86.1 0 1-1.22 1.4q-4.7-.2-19.78-.24-2.01 0-1.97-2.58.07-4.35-.03-19.82c-.13-22.2.12-49.14-.19-64.05q-.1-4.87-.32-6.6a1.05 1.05 0 0 1 1.04-1.17h22.32a.62.61 1.3 0 1 .62.64c-.12 2.56-.86 6.94-.08 8.94a1.75 1.75 0 0 0 2.9.58q3.53-3.66 3.99-4.11c7.78-7.56 18.9-8.64 29.4-7.06q13.5 2.04 20.93 14.48a1.4 1.4 0 0 0 .48.48M1060.15 321.64q-1.53.22-9.17.2c-23.48-.04-42.34-16.38-46.61-39.07-5.42-28.78 11.59-57.04 42.21-59.03 7.38-.48 14.78-.22 21.47 1.76q17.62 5.23 26.97 21.11 5.82 9.91 6.54 20.47c.46 6.91.18 14.26-2.09 21.42-5.73 18.02-20.23 30.32-39.32 33.14m-7.137-78.727a29.6 27.03-89.2 0 0-27.44 29.22 29.6 27.03-89.2 0 0 26.614 29.974 29.6 27.03-89.2 0 0 27.44-29.22 29.6 27.03-89.2 0 0-26.614-29.974M1178.98 321.24q-1.51.3-9.12.67c-23.41 1.13-43.03-14.21-48.43-36.61-6.83-28.41 8.7-57.43 39.12-60.95 7.33-.85 14.72-.96 21.49.68q17.82 4.32 27.94 19.69 6.29 9.58 7.54 20.06c.81 6.87.9 14.21-1.01 21.46-4.8 18.25-18.64 31.24-37.53 35m-11.935-78.268a29.68 27.15-93.7 0 0-25.178 31.37 29.68 27.15-93.7 0 0 29.008 27.866 29.68 27.15-93.7 0 0 25.178-31.37 29.68 27.15-93.7 0 0-29.008-27.866"/><path fill="#fff" d="M317.6 280.19q.64-.99 2.04-1.58 8.84-3.77 18.9-9.37a8.09 7.39-66 0 1 1.28-.56c8.05-2.62 14.83-7.02 22.33-9.98q29.71-11.73 58.44-16.77 17.33-3.05 40.16-3.92 24.25-.92 51 .93 3.91.27 8.37 1.26a.34.34 0 0 1-.02.67q-13.86 2.39-43.27 7.4-3.08.53-4.38.87c-3.42.91-6.85.44-10.26.94q-4.2.62-33.45 3.63c-16.93 1.74-32.88 6.16-51.72 11.87q-11.35 3.45-28.81 9.4-1.15.4-3.08 1.4a10.15 9.97-65.2 0 1-2.28.86c-8.47 2.03-15.92 3.66-24.98 3.45a.33.32 17.1 0 1-.27-.5"/><path fill="#000603" d="M1167.045 242.972a29.68 27.15-93.7 0 1 29.008 27.866 29.68 27.15-93.7 0 1-25.178 31.37 29.68 27.15-93.7 0 1-29.008-27.866 29.68 27.15-93.7 0 1 25.178-31.37m-.06 1.457a28.18 25.6-94 0 0-23.573 29.897 28.18 25.6-94 0 0 27.504 26.325 28.18 25.6-94 0 0 23.572-29.897 28.18 25.6-94 0 0-27.504-26.325M1053.013 242.913a29.6 27.03-89.2 0 1 26.614 29.974 29.6 27.03-89.2 0 1-27.44 29.22 29.6 27.03-89.2 0 1-26.614-29.974 29.6 27.03-89.2 0 1 27.44-29.22m-.178 1.408a28.14 25.44-89.4 0 0-25.734 27.873 28.14 25.44-89.4 0 0 25.144 28.404 28.14 25.44-89.4 0 0 25.734-27.872 28.14 25.44-89.4 0 0-25.144-28.405"/><ellipse fill="#fff" rx="28.14" ry="25.44" transform="rotate(-89.4 663.934 -395.58)"/><ellipse fill="#fff" rx="28.18" ry="25.6" transform="rotate(-94 711.549 -408.762)"/><path fill="#699e48" d="M483.63 268.72q-6.15-2.08-9.64 1.07-2.07-.66-4.39 1.31-1.41 1.19-4.43 5.53a2.81 2.76-20.5 0 0-.44.94q-1.79 6.81 2.63 11.21c1.33 1.33 2.38 1.91 4.39 1.76q3.71-.28 10.69-.09c6.91.19 13.45 2.43 20.49 3.84a.38.38 0 0 1 .15.68q-3.31 2.42-4.32 6.29a.4.39 75.9 0 0 .65.39q4.57-4.34 10.85-4.91c9-.82 20.39 1.57 27.65 2.01q2.15.13 4.94 1.03a.43.42-64.6 0 1 .22.63q-3.67 5.85-3.26 12.59.05.84.35 1.32a.6.6 0 0 0 1.05-.07q3.2-7.03 7.38-12.37a6.23 6.16-86.4 0 1 1.67-1.49q8.05-4.89 14.25-5.24 9.04-.51 14.71 5.59a1.56 1.56 0 0 0 2.49-.27q5.18-8.75 16.5-7.52 2.54.28 3.9.9c7.07 3.24 7.53 16.28 5.96 22.45q-2.85 11.18-12.03 16.54-4.82 2.82-13.53 3.62-13.94 1.28-28.25-.16-3.75-.38-11.06 1.73c-8.96 2.57-17.87 4.45-26.95 3.43-10.86-1.21-21.52-3.72-29.56-6.19-9.91-3.04-22.52-2.62-31.33-.38-12.21 3.1-26.8 3.53-38.28-1.3q-11.13-4.68-19.15-14.83a.55.55 0 0 1 .33-.88l8.69-1.71a1.1 1.07 58.3 0 1 .92.23q1.36 1.15 1.46 1.15a.37.37 0 0 0 .27-.63q-3.78-3.95-5.93-4.5c-9.7-2.46-20.23 1.98-25.04 10.72q-1.61 2.93-1.49 5.66.05 1.26 2.25 2.05c-4.27 5.04-.25 14.1.98 19.36q-.77.34-1.51-.14a.69.69 0 0 0-1.07.65c.74 7.03 7.18 14.76 12.55 18.45q3.41 2.35 9.97 5.48 9.1 18.29 12.23 34.08c2.1 10.58 4.03 19.05 5.18 28.09q2.75 21.86 3.19 42.93.02.68.52.79-.23.73-.15 1.44-.3.13-.29.52.49 19.41-.35 45.23-.17 4.99-1.47 14.54-.68 4.96-1.53 14.51-1.13 12.7-3.56 25.52l-67.78-.06.65-26.68a.65.65 0 0 1 .47-.6q9.77-2.68 18.38-9.38c5.69-4.43 7.79-9.55 8.83-16.45 2.04-13.46-1.88-27.08-9.88-37.76q-1.17-1.56-1.2-4.56-.17-17.39.9-24.64a4.64 4.62-25 0 1 .64-1.75q4.86-7.95 8.09-16.26a.61.61 0 0 0-.76-.8q-2.12.69-4.14 2.18-17.06 12.52-31.84 24.59a1.42 1.41-30.8 0 0-.42 1.65c.63 1.54 1.88 3.13 3.25 4.39 6.91 6.36 13.26 13.05 17.97 20.96 2.3 3.86 5.7 6.72 6.82 11.29 1.26 5.13 2.21 13.04 2.05 18.53-.25 9.18-7.56 14.5-15.76 18.16q-7.39 3.31-13.95 3.28c-2.81-.01-5.52-1.32-7.88-3.22q-2.13-1.73-1.93-5.34a.51.51 0 0 1 .55-.48c3.34.25 8.66 2.19 12.61 2.29q4.06.1 6.22-.06a.52.52 0 0 0 .27-.94l-2.75-1.99a1.25 1.21 69.7 0 0-.44-.21q-7.33-1.69-14.73-6.48a2.7 2.7 0 0 1-1.2-2.58l.81-6.54a.55.54-82.3 0 1 .62-.48q5.85.84 12.99 3.42.55.2 3.78.26a.32.31 71.4 0 0 .25-.51q-2.23-2.87-2.98-3.4-8.95-6.31-30.38-17.83c-12.31-6.62-20.92-15.65-27.13-28.17a6.42 6.11 27.6 0 1-.53-1.56c-1.91-9.93 3.18-20.29 9.3-27.83q10.66-13.15 23.92-24.23 5.91-4.94 15.85-12.02c9.7-6.91 16.6-12.67 25.41-19.22a2.81 2.8 63.9 0 0 1.03-3.02q-1.33-4.75-4-10.34-7.74-16.19-11.51-31.65c-3.27-13.43-4.39-25.51-.67-38.37 5.3-18.28 19.4-25.5 36.72-30.29q9.28-2.56 15.87-4.03a.49.49 0 0 1 .59.56q-.91 5.77-.15 11.69.09.76.48 1.2a.67.67 0 0 0 1.14-.23c2.72-8.14 4.92-16.49 11.51-21.01q3.55-2.44 9.66-2.93 18.95-1.52 30.57 12.32c1.25 1.5 2.47 1.98 3.77 2.71a.34.34 0 0 0 .51-.32c-.67-10.01 5.99-14.74 14.46-18.06 7.58-2.96 14.01 1.14 14.62 9.22m-66.12 25.76q4.03 4.44 9.35 3.13c6.47-1.59 11.37-5.36 12.12-11.99q.38-3.34-2.04-6.25-4-4.83-10.99-4.82-5.06-2.4-8.64-.27c-3.91 2.33-5.98 8.15-5.5 12.61q.6 5.66 5.7 7.59m178.153 8.235a5.09 4.4-107.1 0 0-2.708 6.159 5.09 4.4-107.1 0 0 5.702 3.571 5.09 4.4-107.1 0 0 2.708-6.159 5.09 4.4-107.1 0 0-5.702-3.571m-29.123 5.572a4.88 4.46-54.7 0 0-6.46 1.406 4.88 4.46-54.7 0 0 .82 6.56 4.88 4.46-54.7 0 0 6.46-1.406 4.88 4.46-54.7 0 0-.82-6.56"/><path fill="#fff" d="m483.63 268.72 3.43 14.8a.45.44-9.9 0 1-.38.54l-7.88 1.03a.44.44 0 0 1-.48-.57q.3-.94.73-3.06 1.33-6.49-5.06-11.67 3.49-3.15 9.64-1.07"/><path fill="#00452a" d="M425.95 274.55c4.38 5.31 6.34 11.06 1.56 16.77q-3.47 4.15-10 3.16-5.1-1.93-5.7-7.59c-.48-4.46 1.59-10.28 5.5-12.61q3.58-2.13 8.64.27"/><path fill="#fff" d="M417.51 294.48q6.53.99 10-3.16c4.78-5.71 2.82-11.46-1.56-16.77q6.99-.01 10.99 4.82 2.42 2.91 2.04 6.25c-.75 6.63-5.65 10.4-12.12 11.99q-5.32 1.31-9.35-3.13"/><ellipse fill="#00452a" rx="5.09" ry="4.4" transform="rotate(252.9 412.171 -66.745)"/><ellipse fill="#00452a" rx="4.88" ry="4.46" transform="rotate(-54.7 583.72 -388.791)"/><path fill="#edeac7" d="M380.37 350.21c-1.23-5.26-5.25-14.32-.98-19.36l12.5-10.82a.84.84 0 0 1 1.38.62c.07 3.82 3.89 7.95 6.27 10.24q10.06 9.72 24.5 12.54c11.58 2.26 21.09 1.31 33.29-1.19a.97.97 0 0 1 .92.31q4.97 5.53 10.31 9.13a2.6 2.57-20.5 0 0 .78.35c4.23 1.04 5.25-5.73 6.35-9.5a.63.63 0 0 1 .63-.45q5.69.31 12.71 2.47 5.19 1.6 12.19 2.71 12.04 1.9 22.77 2.47 1.64.08 3.58-.39 6.59-1.6 13.21-3.02c2.65-.56 7.18-2.51 10.48-2.35 8.79.42 17.12 1.48 25.86.91a.44.43 16.2 0 1 .38.69q-3.68 5.1-9.92 7.01-8.2 2.51-12.4 3.3c-11.26 2.13-25.99 3.93-42.02 5q-9.95.67-28.73 2.56-6.01.61-11.26 2.22c-17.8 5.44-37.48 9.77-55.8 6.69-14.72-2.48-26.72-7.62-35.88-19.57q-.71-.92-1.12-2.57"/><path fill="#edeac7" d="M470.7 345.64a.27.27 0 0 1-.34.17l-.12-.04a6.9 2.36 17.9 0 1-5.84-4.36l.02-.06a6.9 2.36 17.9 0 1 7.29-.13l.12.04a.27.27 0 0 1 .17.34z"/><path fill="#000603" d="M729.51 434.96q-.07-2.25.59-3.7a.67.66-32.9 0 1 1.27.27q0 35.41-.04 40.72-.02 2.37-.47 5.43a1.21 1.21 0 0 0 1.2 1.38h21.85a.92.91 0 0 0 .92-.91l.06-49.57a3.94 3.91 52.9 0 1 .14-1.04q.58-2.26 3.18-2.31 3.23-.06 5.84-.58a3.97 3.96 40.3 0 1 .97-.08q8.7.4 12.88.25c9.02-.34 13.4.07 23.42.05 1.19-.01 3.01 1.02 3.92-.41a.75.74-29.5 0 0 .11-.39v-17.32a.72.72 0 0 0-.72-.72h-47.75a1.91 1.91 0 0 1-1.91-1.89q-.18-15.44-.02-29.97.03-2.8.05-2.84.96-1.48 2.2-1.47 26.84.11 42.7-.29c4.73-.11 9.56.38 14.37.3a.8.8 0 0 0 .79-.8v-17.8a1.24 1.23 0 0 0-1.24-1.23h-82.16a.99.99 0 0 0-.95 1.28q.47 1.54.5 3.31.2 9.69.14 46.88-.01 5.6-1.87 3.07l-.03-55.61a.52.52 0 0 1 .52-.52h86.1a.52.52 0 0 1 .52.52v21.53a.61.61 0 0 1-.61.61h-59.41a.47.46 0 0 0-.47.46v32.44a.42.41 0 0 0 .42.41h50.19a.61.61 0 0 1 .61.61v21.33a.52.52 0 0 1-.52.52h-50.3a.42.42 0 0 0-.42.42v52.68a.39.38-90 0 1-.38.39h-25.75a.54.53 0 0 1-.54-.53z"/><path fill="#13553a" d="m729.51 434.96-.03-30.38q1.86 2.53 1.87-3.07.06-37.19-.14-46.88-.03-1.77-.5-3.31a.99.99 0 0 1 .95-1.28h82.16a1.24 1.23 0 0 1 1.24 1.23v17.8a.8.8 0 0 1-.79.8c-4.81.08-9.64-.41-14.37-.3q-15.86.4-42.7.29-1.24-.01-2.2 1.47-.02.04-.05 2.84-.16 14.53.02 29.97a1.91 1.91 0 0 0 1.91 1.89h47.75a.72.72 0 0 1 .72.72v17.32a.75.74-29.5 0 1-.11.39c-.91 1.43-2.73.4-3.92.41-10.02.02-14.4-.39-23.42-.05q-4.18.15-12.88-.25a3.97 3.96 40.3 0 0-.97.08q-2.61.52-5.84.58-2.6.05-3.18 2.31a3.94 3.91 52.9 0 0-.14 1.04l-.06 49.57a.92.91 0 0 1-.92.91h-21.85a1.21 1.21 0 0 1-1.2-1.38q.45-3.06.47-5.43.04-5.31.04-40.72a.67.66-32.9 0 0-1.27-.27q-.66 1.45-.59 3.7"/><rect width="31.96" height="3.68" x="-15.98" y="-1.84" fill="#fed12d" rx=".5" transform="rotate(15 -1103.093 2692.024)"/><ellipse fill="#edeac7" rx=".87" ry=".64" transform="rotate(.7 -30391.257 38857.991)"/><path fill="#edeac7" d="M400.31 374.65q12.84 5.38 26.18 5.92 18.66.74 36.79-4.49a.43.43 0 0 1 .55.4q.15 4.24 1.78 8.17 2.67 6.41 5.99 13.47a.59.59 0 0 1-.28.78q-12.28 5.96-26.05 7.14-15.12 1.29-31.42-1.78a1.07 1.07 0 0 0-1.05 1.69l.7.94a3.96 3.89-11.3 0 0 2.25 1.47q30.3 7.14 57.98-3.74a.88.87-27.5 0 1 1.05.33q8.07 12.58 14.34 25.44a1.04 1.03 60.9 0 1-.37 1.32q-7.97 5.11-17.95 7.32c-15.99 3.56-32.87 3.73-48.66 1.49a1.58 1.53 41.4 0 0-.63.03l-1.85.44a1.02 1.01-35.9 0 0-.3 1.85q2.3 1.43 5.33 1.98c19.26 3.46 42.37 2.92 60.28-4.8q2.99-1.29 6.35-2.56a.71.7-27 0 1 .84.27q.61.91 1.44 2.94 6.21 15.13 9.46 28.72a1.14 1.14 0 0 1-.59 1.28c-23.9 12.55-52.31 13.15-78.21 8.54q-1.45-.26-2.83 1.33-.5-.11-.52-.79-.44-21.07-3.19-42.93c-1.15-9.04-3.08-17.51-5.18-28.09q-3.13-15.79-12.23-34.08"/><path fill="#fed12d" d="m620.7 578.35-31.72-8.76a.24.23-75.1 0 1-.16-.29l30.6-110.82a.79.77-84 0 1 .69-.57c8.99-.67 17.4-5.9 19.18-15.35 1.45-7.71-2.66-13.18-9.04-16.54a1.65 1.63-68.6 0 1-.82-1.9l12.16-44.04a1.09 1.09 0 0 1 1.41-.74q6.59 2.26 9.42 2.9c7.92 1.79 11.75 3.17 19.64 4.98a.59.59 0 0 1 .44.73l-15.76 57.07a1.48 1.46 88.5 0 1-.93.99c-8.85 3.05-14.74 4.34-19.06 12.14q-2.54 4.59-.48 9.71a1.27 1.27 0 0 1-.3 1.38q-3.76 3.65-4.61 8.24c-.58 3.14 1.29 7.73.15 11.02q-2.52 7.28-3.73 13.58c-.75 3.92-2.52 7.88-2.75 12.1a2.42 2.42 0 0 0 2.12 2.54l8.96 1.11a1.47 1.47 0 0 1 1.23 1.85l-16.12 58.37a.42.42 0 0 1-.52.3m33.594-181.345a12.76 12.29-68.9 0 0-16.06 7.48 12.76 12.29-68.9 0 0 6.872 16.33 12.76 12.29-68.9 0 0 16.06-7.48 12.76 12.29-68.9 0 0-6.872-16.33M607.61 559.48c5.76 2 11.71-1.76 14.81-6.36 4.48-6.68 1.71-16.11-6.07-18.81s-15.8 2.99-16.42 11.01c-.42 5.52 1.92 12.16 7.68 14.16"/><path fill="#000603" d="M914.24 436.9a.51.51 0 0 1-.51.48h-68.46a.78.78 0 0 0-.76.96q.72 3.1 2.01 7.14c3.32 10.47 13.27 15.24 23.97 15.46q13.03.26 20.56-10.15a.65.64 38.4 0 1 .95-.1q1.03.9 1.68 1.14.66.25 17.35 7.4a.71.71 0 0 1 .35.98q-8.94 17.11-28.47 21.14-13.03 2.69-26.13-.2c-19.95-4.41-32.43-18.93-35.99-38.63q-1.93-10.69-.18-21.01c3.61-21.31 17.22-36.6 38.88-39.95q4.09-.63 14.77-.23c12.53.48 26.06 7.51 32.81 18.58 6.99 11.45 7.78 23.88 7.17 36.99m-5.08 24.25a.92.92 0 0 0-.45-1.27l-16.54-7.12a.78.78 0 0 0-.88.18c-3.73 3.97-6.01 6.38-11.36 8.22-5.43 1.86-14.14 1.7-20.12-.54q-14.74-5.5-16.56-22.29a2.15 2.15 0 0 1 2.14-2.38h66.67a.81.81 0 0 0 .81-.82c-.17-9.76-.32-19.17-3.65-27.54-3.15-7.9-8-14.55-15.26-18.68-11.56-6.57-25.62-7.7-38.5-4.93q-7.81 1.68-16 7.13c-1.94 1.29-3.73 3.73-5.73 5.64-4.26 4.08-7.4 10.46-9.16 15.83q-5.23 16-1.61 32.26c3.8 17.07 14.55 29.41 31.38 34.05q12.99 3.59 25.17 1.55c12.78-2.13 23.62-7.88 29.65-19.29M955.93 394.45a.52.52 0 0 0 .85.04c8.63-11.17 21.74-14.35 35.44-13.13 14.83 1.31 26.01 10.27 29.14 25.31q1.15 5.54 1.02 13.83-.14 8.39.03 59.95a.16.15-90 0 1-.15.16H997.9a.55.55 0 0 1-.55-.56q.03-5.32.05-47.37 0-9.25-.22-10.75c-1.8-11.9-11.08-16.76-22.36-15.46-9.6 1.11-15.58 7.18-18.34 16.09q-.87 2.79-.81 8.48.07 7.43.05 49.06a.52.52 0 0 1-.52.52h-24.23a.41.41 0 0 1-.41-.41v-96.78a.57.56-90 0 1 .56-.57h24.22a.47.47 0 0 1 .47.48q-.22 6.16-.16 9.93.02.75.28 1.18m3.06-.45c-1.45 1.69-4.83 2.18-4.89-.88q-.05-2.73.34-7.52a.98.97-87.8 0 0-.97-1.05h-20.23a1.05 1.04 90 0 0-1.04 1.05v92.89a.8.8 0 0 0 .8.8h20.43a1 1 0 0 0 1-1.07c-1.15-16.11-1.06-32.64-.15-49.03q.36-6.61 1.1-8.55c3.59-9.55 11.51-15.62 21.69-15.79q5.24-.09 6.18.14c7.14 1.73 12.6 6.31 14.54 13.38q1.27 4.67 1.26 6.4-.22 24.16.01 40.17c.06 4.27-.49 8.53-.62 13.24a1.12 1.11-89.2 0 0 1.11 1.15h20.82a.83.82-88.1 0 0 .82-.78q.08-1.48-.24-3.29a3.09 2.81 42.4 0 1-.05-.54q-.17-52.1-.12-55.17.06-4.01-.38-7.59-.78-6.39-1.11-7.53-4.36-15.41-18.77-19.81-13.79-4.2-27.92.32-8.03 2.56-13.61 9.06M1108.58 417.23q-.9-1.1-2.06-3.26c-4.48-8.4-13.79-10.9-22.89-9.54-12.92 1.93-19.93 13.56-20.14 26.13-.28 16.57 10.36 30.65 28.08 29.05 6.53-.6 12.95-4.76 16.16-10.34q1.3-2.26 1.98-3.07a.82.82 0 0 1 .87-.26l21.83 6.62a.28.27-72.2 0 1 .18.36c-5.99 17.53-19.96 27.35-38.17 29.24-19.11 1.99-36.33-4.15-47.55-20.04-11.4-16.14-12.02-40.33-1.83-57.58q11.41-19.29 34.23-22.95 5.16-.83 15.59-.09c17.29 1.22 32.3 12.7 37.35 29.31a.9.9 0 0 1-.66 1.14l-21.2 4.92a1.12 1.09-68.9 0 0-.37.17l-.41.31a.73.72 51.8 0 1-.99-.12m21.94 37.18a.72.72 0 0 0-.46-.96l-18.98-5.75a1.11 1.1-68.2 0 0-1.31.57q-6.36 12.78-21.01 13.02-8.32.13-14.35-4.41c-4.48-3.37-9.57-9.03-10.82-14.64-.76-3.4-1.86-6.3-1.97-9.66-.39-11.32 5.18-22.98 15.63-27.73q8.31-3.78 17.65-1.44c6.09 1.53 11.12 5.6 13.49 11.39a1.14 1.13-17.4 0 0 1.31.68l20.55-4.77a.44.44 0 0 0 .33-.56c-1.51-4.9-4.04-9.46-7.88-13.39q-4.52-4.62-4.7-4.76-4.84-3.89-10.51-6.13-2.93-1.16-7.29-1.93-7.09-1.24-7.46-1.24c-9.17-.1-16.31.33-23.42 3.02q-16.07 6.08-24.21 21.88c-4.55 8.82-5.36 17.28-5.2 27.14q.36 22.53 17.82 36.78c9.58 7.82 26 11.29 37.82 8.98 5.4-1.05 8.43-1.39 12.3-2.94q16.14-6.48 22.67-23.15M1239.92 436.94a.51.51 0 0 1-.51.48l-68.48.01a.79.78 83.5 0 0-.76.96q.72 3.1 2.01 7.14c3.32 10.48 13.28 15.25 23.98 15.47q13.03.25 20.56-10.16a.65.64 38.4 0 1 .96-.1q1.03.9 1.68 1.14.66.25 17.35 7.4a.71.71 0 0 1 .35.98q-8.94 17.12-28.47 21.15-13.04 2.69-26.14-.2c-19.96-4.41-32.44-18.93-36.01-38.63q-1.93-10.7-.18-21.02c3.61-21.32 17.22-36.61 38.89-39.97q4.09-.63 14.77-.23c12.54.48 26.07 7.51 32.82 18.58 7 11.46 7.79 23.89 7.18 37m-22.94 15.96q-5.71 7.68-14.33 9.09-6.21 1.02-12.82-.11-6.11-1.04-11.55-5.11c-5.18-3.88-9.57-12.42-9.2-18.97a1.97 1.96-88.5 0 1 1.96-1.86h66.1a1.09 1.08-1 0 0 1.09-1.12q-.28-8.05-.47-14.01c-.18-5.32-2.14-12.29-4.08-16.26q-7.25-14.87-23.16-19.57-13.25-3.91-28.02-1.3-5.37.95-9.62 3.06-6.32 3.15-8.59 5.31-6.59 6.31-7.76 7.99-6.31 9.09-7.96 17.86-1.34 7.17-.91 18.13.58 14.85 8.23 26.31 8.13 12.19 23.05 16.48 12.56 3.62 25.63 1.72c12.71-1.85 24.22-7.75 30.44-19.39a1.11 1.11 0 0 0-.65-1.59q-8.71-2.68-16.44-6.87a.74.74 0 0 0-.94.21"/><path fill="#13553a" d="M909.16 461.15c-6.03 11.41-16.87 17.16-29.65 19.29q-12.18 2.04-25.17-1.55c-16.83-4.64-27.58-16.98-31.38-34.05q-3.62-16.26 1.61-32.26c1.76-5.37 4.9-11.75 9.16-15.83 2-1.91 3.79-4.35 5.73-5.64q8.19-5.45 16-7.13c12.88-2.77 26.94-1.64 38.5 4.93 7.26 4.13 12.11 10.78 15.26 18.68 3.33 8.37 3.48 17.78 3.65 27.54a.81.81 0 0 1-.81.82h-66.67a2.15 2.15 0 0 0-2.14 2.38q1.82 16.79 16.56 22.29c5.98 2.24 14.69 2.4 20.12.54 5.35-1.84 7.63-4.25 11.36-8.22a.78.78 0 0 1 .88-.18l16.54 7.12a.92.92 0 0 1 .45 1.27m-18.54-40.19q.51-5.3-1.59-9.24c-5.15-9.71-17.02-12.85-27.07-10.69-8.76 1.87-15.15 9.62-17.99 17.85-.7 2.05.08 3.74 2.31 3.73q22.59-.02 38.72-.16 4.2-.03 5.02-.53a1.27 1.27 0 0 0 .6-.96M954.1 393.12c.06 3.06 3.44 2.57 4.89.88q5.58-6.5 13.61-9.06 14.13-4.52 27.92-.32 14.41 4.4 18.77 19.81.33 1.14 1.11 7.53.44 3.58.38 7.59-.05 3.07.12 55.17a3.09 2.81 42.4 0 0 .05.54q.32 1.81.24 3.29a.83.82-88.1 0 1-.82.78h-20.82a1.12 1.11-89.2 0 1-1.11-1.15c.13-4.71.68-8.97.62-13.24q-.23-16.01-.01-40.17.01-1.73-1.26-6.4c-1.94-7.07-7.4-11.65-14.54-13.38q-.94-.23-6.18-.14c-10.18.17-18.1 6.24-21.69 15.79q-.74 1.94-1.1 8.55c-.91 16.39-1 32.92.15 49.03a1 1 0 0 1-1 1.07H933a.8.8 0 0 1-.8-.8V385.6a1.05 1.04-90 0 1 1.04-1.05h20.23a.98.97-87.8 0 1 .97 1.05q-.39 4.79-.34 7.52M1130.52 454.41q-6.53 16.67-22.67 23.15c-3.87 1.55-6.9 1.89-12.3 2.94-11.82 2.31-28.24-1.16-37.82-8.98q-17.46-14.25-17.82-36.78c-.16-9.86.65-18.32 5.2-27.14q8.14-15.8 24.21-21.88c7.11-2.69 14.25-3.12 23.42-3.02q.37 0 7.46 1.24 4.36.77 7.29 1.93 5.67 2.24 10.51 6.13.18.14 4.7 4.76c3.84 3.93 6.37 8.49 7.88 13.39a.44.44 0 0 1-.33.56l-20.55 4.77a1.14 1.13-17.4 0 1-1.31-.68c-2.37-5.79-7.4-9.86-13.49-11.39q-9.34-2.34-17.65 1.44c-10.45 4.75-16.02 16.41-15.63 27.73.11 3.36 1.21 6.26 1.97 9.66 1.25 5.61 6.34 11.27 10.82 14.64q6.03 4.54 14.35 4.41 14.65-.24 21.01-13.02a1.11 1.1-68.2 0 1 1.31-.57l18.98 5.75a.72.72 0 0 1 .46.96M1216.98 452.9a.74.74 0 0 1 .94-.21q7.73 4.19 16.44 6.87a1.11 1.11 0 0 1 .65 1.59c-6.22 11.64-17.73 17.54-30.44 19.39q-13.07 1.9-25.63-1.72-14.92-4.29-23.05-16.48-7.65-11.46-8.23-26.31-.43-10.96.91-18.13 1.65-8.77 7.96-17.86 1.17-1.68 7.76-7.99 2.27-2.16 8.59-5.31 4.25-2.11 9.62-3.06 14.77-2.61 28.02 1.3 15.91 4.7 23.16 19.57c1.94 3.97 3.9 10.94 4.08 16.26q.19 5.96.47 14.01a1.09 1.08-1 0 1-1.09 1.12h-66.1a1.97 1.96-88.5 0 0-1.96 1.86c-.37 6.55 4.02 15.09 9.2 18.97q5.44 4.07 11.55 5.11 6.61 1.13 12.82.11 8.62-1.41 14.33-9.09m-.7-31.82q.54-5.32-1.55-9.28c-5.13-9.76-17.03-12.96-27.12-10.83-8.8 1.84-15.24 9.59-18.12 17.84-.71 2.05.07 3.75 2.3 3.75q22.67.07 38.85-.01 4.21-.01 5.04-.51a1.27 1.27 0 0 0 .6-.96"/><path fill="#fff" d="M252.85 388.22a.3.3 0 0 1 .3-.29l8.09.08a2.75 1.77.6 0 1 2.73 1.8l-.15 14.28a2.75 1.77.6 0 1-2.76 1.74l-8.09-.09a.3.3 0 0 1-.3-.3z"/><rect width="8.96" height="17.72" x="-4.48" y="-8.86" fill="#fff" rx=".32" transform="rotate(-.1 227601.334 -111001.086)"/><path fill="#fff" d="M342.9 391.79a1.17 1.17 0 0 1-.03 1.65q-6.85 6.7-16.84 12.59-3.52 2.06-7.85 1.6a.32.32 0 0 1-.29-.32v-18.32a.49.49 0 0 1 .49-.49h20.66a1.6 1.59 67.7 0 1 1.14.48z"/><path fill="#00452a" d="M654.294 397.006a12.76 12.29-68.9 0 1 6.872 16.328 12.76 12.29-68.9 0 1-16.06 7.48 12.76 12.29-68.9 0 1-6.872-16.328 12.76 12.29-68.9 0 1 16.06-7.48m-.154 6.144q-7.23-1.96-9.95 3.99-.99 2.15-.18 3.83c1.2 2.49 3.92 5.29 6.88 3.94 5.56-2.53 3.81-6.11 3.96-10.81a.97.96 8.5 0 0-.71-.95"/><path fill="#000603" d="M890.02 421.92q-.82.5-5.02.53-16.13.14-38.72.16c-2.23.01-3.01-1.68-2.31-3.73 2.84-8.23 9.23-15.98 17.99-17.85 10.05-2.16 21.92.98 27.07 10.69q2.1 3.94 1.59 9.24a1.27 1.27 0 0 1-.6.96m-44.95-1.61a.62.62 0 0 0 .58.84l42.69-.05a1.05 1.04-.1 0 0 1.05-1.04c.01-10-7.17-15.92-16.43-17.79q-13.97-2.82-23.1 8.32c-2.33 2.85-3.43 5.98-4.79 9.72M1216.28 421.08a1.27 1.27 0 0 1-.6.96q-.83.5-5.04.51-16.18.08-38.85.01c-2.23 0-3.01-1.7-2.3-3.75 2.88-8.25 9.32-16 18.12-17.84 10.09-2.13 21.99 1.07 27.12 10.83q2.09 3.96 1.55 9.28m-45.63-.69a.63.62 10.1 0 0 .59.84h42.97a1.06 1.05 0 0 0 1.06-1.05c.02-10.07-7.2-16.03-16.52-17.92q-14.06-2.86-23.26 8.35c-2.35 2.86-3.46 6.01-4.84 9.78"/><path fill="#fff" d="M845.07 420.31c1.36-3.74 2.46-6.87 4.79-9.72q9.13-11.14 23.1-8.32c9.26 1.87 16.44 7.79 16.43 17.79a1.05 1.04-.1 0 1-1.05 1.04l-42.69.05a.62.62 0 0 1-.58-.84M1170.65 420.39c1.38-3.77 2.49-6.92 4.84-9.78q9.2-11.21 23.26-8.35c9.32 1.89 16.54 7.85 16.52 17.92a1.06 1.05 0 0 1-1.06 1.05h-42.97a.63.62 10.1 0 1-.59-.84M654.85 404.1c-.15 4.7 1.6 8.28-3.96 10.81-2.96 1.35-5.68-1.45-6.88-3.94q-.81-1.68.18-3.83 2.72-5.95 9.95-3.99a.97.96 8.5 0 1 .71.95"/><path fill="#699e48" d="M487.99 406.69q10.89 3.6 19.84 10.66 13.88 10.95 18.91 15.73c7.56 7.2 11.9 11.9 21.8 12.84q23.35 2.23 39.87 2.78c4.77.16 7.62.76 10.68-2.33q5.08-5.13 9.08-9.69 4.64-5.29 11.79-6.04c4.03-.42 9.21 1.66 10.8 5.65 1.1 2.77 1.08 5.92-.6 8.6q-3.62 5.72-11.17 4.81-2.21-.26-4.66-1.11-1.71-.59-2.73.64-2.04 2.46-.21 4.48a1.57 1.56 31.7 0 1 .35 1.47l-7.24 26.21a.61.6-76.9 0 1-.69.44l-9.32-1.67a4.65 4.58-45.5 0 0-1.78.03c-15.09 3.19-22.89 4.84-36.41 6.41q-19.18 2.24-37.79-2.79a2.02 2.01 77.1 0 1-1.02-.64q-.96-1.11-1.34-2.61-3.96-15.71-8.62-30.62-5.66-18.1-18.84-40.55-.54-.91-1.09-2.28a.32.32 0 0 1 .39-.42"/><rect width="11.56" height="89.3" x="-5.78" y="-44.65" fill="#fff" rx=".68" transform="rotate(.1 -262554.744 148224.196)"/><path fill="#699e48" d="M664.59 453.08c3.41 3.06 1.02 8.04-1.83 10.7-3.13 2.92-10.05 3.5-14.23 3.62q-3.92.12-5.52-3.02a.73.73 0 0 1-.06-.44l.95-5.29a2.54 2.53-7.7 0 1 1.41-1.84c5.12-2.4 12.58-4.76 18.24-4.19a1.87 1.82 68.1 0 1 1.04.46M640.04 473.14a1.3 1.29-59.3 0 1 2.17-.56q2.52 2.62 4.54 2.53 5.8-.25 12.55-2.26a1.23 1.23 0 0 1 1.58 1.09q.1 1.33-.93 2.78c-4.87 6.79-12.9 10.11-20.1 5.09a3.17 3.17 0 0 1-1.25-3.45z"/><path fill="#edeac7" d="m505.63 582.15-91.55.15q2.43-12.82 3.56-25.52.85-9.55 1.53-14.51 1.3-9.55 1.47-14.54.84-25.82.35-45.23-.01-.39.29-.52c2.77.77 5.57 1.73 8.27 2.27 21.89 4.32 43.81 4.18 64.74-3.71q2.37-.89 10.01-4.07a.46.45 72.2 0 1 .62.32q3.96 17.56 5.16 34.44a1.49 1.47-15.7 0 1-.82 1.44c-26.93 13.39-57.41 12.49-86.26 7.11q-.25-.04-.77.29a1.08 1.08 0 0 0-.02 1.81q2.02 1.35 5.22 2.19 3.17.84 14.13 2.8c16.88 3.02 35.45 2.73 52.56-1.98q7.85-2.16 15.74-6.42a.58.58 0 0 1 .85.48q.78 16.53-.73 32.42a2.94 2.94 0 0 1-1.73 2.41q-4.26 1.92-6.89 2.81-16.08 5.47-32.61 6.51-17.77 1.12-39.39-2.72c-3-.53-6.4-1.77-9.19-2.06a1.22 1.21 29.8 0 0-.85.23l-.98.74a1.07 1.06-52.2 0 0 .23 1.84c20.2 8.16 43.98 9.5 64.9 6.01q12.16-2.02 25.31-7.83a.3.3 0 0 1 .42.3q-.82 11.4-3.57 22.54"/><path fill="#fed12d" d="m644.84 491.88-4.73 17.1a.98.98 0 0 1-.83.72l-4.6.6a1.05 1.05 0 0 1-1.17-.84q-.19-.98.21-2.97 1.73-8.65 4.11-15.7a.77.76-75.7 0 1 .85-.51l5.81 1.04a.45.45 0 0 1 .35.56"/><path fill="#fff" d="m198.29 529.78-8.53 1.11a.68.68 0 0 1-.77-.67v-17.64a.68.68 0 0 1 .59-.68l8.53-1.1a.68.68 0 0 1 .77.67v17.63a.68.68 0 0 1-.59.68M252.95 511.16h10.31a.94.94 0 0 1 .94.97l-.46 16.66a.94.94 0 0 1-.94.91h-9.85a.94.94 0 0 1-.94-.94V512.1a.94.94 0 0 1 .94-.94"/><path fill="#000603" d="M847.25 584.81q.01.03 1.83 3.42c4.62 8.59 16.46 9.96 24.7 7.38q8.32-2.61 8.57-11.06c.19-6.55-5.4-9.3-10.65-11.02-7.88-2.58-18.17-4.37-26.73-8.72-8.21-4.18-13.54-11.49-13.55-20.81q-.01-7.4.16-8.13c2.49-10.68 9.98-17.45 20.22-20.63q9.7-3.03 18.74-2.28 2.45.2 8.11 1.77c9.42 2.62 16.55 8.12 20.27 17.31q.94 2.33.71 4.59a.73.72-3.3 0 1-.58.64l-17.51 3.44a.69.69 0 0 1-.82-.61c-.58-5.63-7.07-9.49-12.22-9.84-7.58-.51-16.18.68-16.95 9.88-.82 9.71 8.54 12 16.28 13.98 16 4.12 35.07 9.82 34.75 30.28-.24 14.83-12.11 26.41-26.34 28.84-5.65.97-15.03.83-19.98.29-13.38-1.46-25.21-11.43-28.32-24.8a.39.39 0 0 1 .3-.47l17.11-3.3a2.4 2.32 27.5 0 0 .37-.11l.76-.32a.52.52 0 0 1 .77.28m-17.16 6.17c4.61 12.97 15.49 20.59 29.11 21.33 7.05.38 15.01.69 21.47-1.72q6.09-2.27 9.51-4.9c12.28-9.44 15.31-29.08 2.88-39.53q-2.67-2.25-7.54-4.54-5.23-2.46-8.32-3.3-12.57-3.41-15.31-4.26c-3.48-1.07-8.86-3.63-10.64-7.29q-2.47-5.1-.19-10.79c2.71-6.79 13.42-8.43 19.32-7.12q8.02 1.78 11.26 8.82a2.09 2.09 0 0 0 2.48 1.14q6.98-2.01 13.05-2.38a1 .99-88.6 0 0 .93-.89q.17-1.51-.51-3.17c-3.39-8.18-9.51-13.25-17.93-15.63q-5.49-1.55-7.09-1.76-15.53-2.02-28.33 5.4c-7.27 4.21-11.29 11.48-11.31 20.01q-.01 5.4.23 6.7 2.15 11.79 13.18 16.81c8.59 3.89 19.82 6.16 26.58 8.46 5.85 2 10.62 5.35 11.02 11.88.36 5.98-4.61 11.72-10.04 12.91-9.5 2.08-18 1.27-24.9-6.15a1.34 1.26 13.5 0 1-.25-.38l-1.46-3.14a1.74 1.74 0 0 0-1.91-.98l-14.36 2.83a1.24 1.24 0 0 0-.93 1.64M793.56 514.57h18.49a.36.36 0 0 1 .36.36q-.1 45.76 0 60.75.05 7.64-1.1 11.55-1.97 6.73-4.8 10.53-11.69 15.69-31.51 16.07c-7.4.14-14.49.13-21.09-2.35-15.5-5.85-23.11-17.57-23.49-34q-.21-9.27-.12-47.98.01-7.37-.27-14.24a.61.61 0 0 1 .61-.63h19.28a.89.89 0 0 1 .89.89q-.26 33.32-.18 57.16c.02 6 .86 11.46 4.76 15.96q8.01 9.24 20.52 7.37c11.07-1.65 17.05-11.7 17-22.4q-.16-33.76-.04-58.36a.69.68 0 0 1 .69-.68m.75 3.21q-.15 1.88.08 13.92c.24 12.68-.03 30.52-.05 37.16q-.03 10.14-1.25 13.66c-2.23 6.41-7.74 13.36-14.7 14.6-6.2 1.1-13.13 1.07-18.59-2.58q-6.83-4.56-9.56-11.89a4.34 4.11-60.1 0 1-.22-.91c-.49-3.62-1.11-6.62-1.11-10.83q-.02-19.05.24-53.87a.92.91 87.2 0 0-1.01-.92q-8.28.87-15.75-.17a.72.72 0 0 0-.81.81q.32 2.37.35 4.58.32 24.77.19 54.87c-.05 11.25 3.16 21.64 12.26 28.48q7.21 5.42 15.49 6.9 7.15 1.28 17.46.78c9.23-.44 20.91-5.93 26.6-13.48q6.89-9.16 6.96-20.17.04-7.24.08-61.51a.66.66 0 0 0-.66-.66h-14.67a1.33 1.33 0 0 0-1.33 1.23"/><path fill="#13553a" d="M830.09 590.98a1.24 1.24 0 0 1 .93-1.64l14.36-2.83a1.74 1.74 0 0 1 1.91.98l1.46 3.14a1.34 1.26 13.5 0 0 .25.38c6.9 7.42 15.4 8.23 24.9 6.15 5.43-1.19 10.4-6.93 10.04-12.91-.4-6.53-5.17-9.88-11.02-11.88-6.76-2.3-17.99-4.57-26.58-8.46q-11.03-5.02-13.18-16.81-.24-1.3-.23-6.7c.02-8.53 4.04-15.8 11.31-20.01q12.8-7.42 28.33-5.4 1.6.21 7.09 1.76c8.42 2.38 14.54 7.45 17.93 15.63q.68 1.66.51 3.17a1 .99-88.6 0 1-.93.89q-6.07.37-13.05 2.38a2.09 2.09 0 0 1-2.48-1.14q-3.24-7.04-11.26-8.82c-5.9-1.31-16.61.33-19.32 7.12q-2.28 5.69.19 10.79c1.78 3.66 7.16 6.22 10.64 7.29q2.74.85 15.31 4.26 3.09.84 8.32 3.3 4.87 2.29 7.54 4.54c12.43 10.45 9.4 30.09-2.88 39.53q-3.42 2.63-9.51 4.9c-6.46 2.41-14.42 2.1-21.47 1.72-13.62-.74-24.5-8.36-29.11-21.33"/><path fill="#000603" d="M957.02 514.57q5.35 0 10.67.11a.7.69 79.8 0 1 .64.45l36.17 97.34a.74.73-10.2 0 1-.69.99h-18.94a.62.61 79.5 0 1-.57-.4l-7.35-19.78a.97.96-9.9 0 0-.9-.62q-1.67-.01-19.04-.01-17.36 0-19.03.01a.97.96 9.9 0 0-.9.62l-7.35 19.78a.62.61-79.5 0 1-.57.4h-18.94a.74.73 10.2 0 1-.69-.99l36.17-97.34a.7.69-79.8 0 1 .64-.45q5.32-.11 10.68-.11m44.9 95.81-34.63-93.19a1.07 1.07 0 0 0-1-.69h-18.56a1.07 1.07 0 0 0-1 .69l-34.57 93.01a.94.94 0 0 0 .88 1.27h14.86a1.74 1.74 0 0 0 1.69-1.33q2.27-9.37 6.35-17.81a2.89 2.87-78 0 1 2.49-1.63q19.45-.68 36.31-.23 3 .08 3.84 2.01 3.62 8.31 6.8 17.98a1.4 1.39 80.7 0 0 1.32.96h14.5a.77.77 0 0 0 .72-1.04"/><path fill="#13553a" d="M794.31 517.78a1.33 1.33 0 0 1 1.33-1.23h14.67a.66.66 0 0 1 .66.66q-.04 54.27-.08 61.51-.07 11.01-6.96 20.17c-5.69 7.55-17.37 13.04-26.6 13.48q-10.31.5-17.46-.78-8.28-1.48-15.49-6.9c-9.1-6.84-12.31-17.23-12.26-28.48q.13-30.1-.19-54.87-.03-2.21-.35-4.58a.72.72 0 0 1 .81-.81q7.47 1.04 15.75.17a.92.91 87.2 0 1 1.01.92q-.26 34.82-.24 53.87c0 4.21.62 7.21 1.11 10.83a4.34 4.11-60.1 0 0 .22.91q2.73 7.33 9.56 11.89c5.46 3.65 12.39 3.68 18.59 2.58 6.96-1.24 12.47-8.19 14.7-14.6q1.22-3.52 1.25-13.66c.02-6.64.29-24.48.05-37.16q-.23-12.04-.08-13.92M1001.92 610.38a.77.77 0 0 1-.72 1.04h-14.5a1.4 1.39 80.7 0 1-1.32-.96q-3.18-9.67-6.8-17.98-.84-1.93-3.84-2.01-16.86-.45-36.31.23a2.89 2.87-78 0 0-2.49 1.63q-4.08 8.44-6.35 17.81a1.74 1.74 0 0 1-1.69 1.33h-14.86a.94.94 0 0 1-.88-1.27l34.57-93.01a1.07 1.07 0 0 1 1-.69h18.56a1.07 1.07 0 0 1 1 .69zm-44.18-71.87q-.53-.29-1.15-.01-.15-.44-.33-.48a1.42 1.35-75 0 0-1.53.93q-6.13 17.12-12.18 33.3a1.64 1.52-37 0 0-.1.55c-.02 2.21.82 2.98 3.15 3.1q12.35.6 24.39-.14a1.45 1.45 0 0 0 .86-.35q1.75-1.52 1.21-2.94-7.07-18.56-11.62-31.34-.79-2.2-1.59-2.99a.67.66-21.8 0 0-.43-.18q-.56-.03-.68.55"/><path fill="#fff" d="M317.96 530.04a.28.28 0 0 1-.4.23l-.51-.23a.03.02 31.7 0 1-.01-.02l.38-11.82a.42.42 0 0 1 .55-.39q1.33.41 1.67.62a.64.63 32.3 0 1 .2.87c-2.43 3.91-1.58 6.89-1.88 10.74"/><path fill="#00452a" d="M616.35 534.31c7.78 2.7 10.55 12.13 6.07 18.81-3.1 4.6-9.05 8.36-14.81 6.36s-8.1-8.64-7.68-14.16c.62-8.02 8.64-13.71 16.42-11.01m-2.516 5.64a6.82 5.6-75.1 0 0-7.166 5.15 6.82 5.6-75.1 0 0 3.658 8.03 6.82 5.6-75.1 0 0 7.166-5.15 6.82 5.6-75.1 0 0-3.658-8.03"/><path fill="#000603" d="m956.59 538.5-12.67 35a.67.67 0 0 0 .63.9h25.52a.6.59 79.9 0 0 .55-.8l-12.88-35.09q.12-.58.68-.55a.67.66-21.8 0 1 .43.18q.8.79 1.59 2.99 4.55 12.78 11.62 31.34.54 1.42-1.21 2.94a1.45 1.45 0 0 1-.86.35q-12.04.74-24.39.14c-2.33-.12-3.17-.89-3.15-3.1a1.64 1.52-37 0 1 .1-.55q6.05-16.18 12.18-33.3a1.42 1.35-75 0 1 1.53-.93q.18.04.33.48"/><path fill="#fff" d="m957.74 538.51 12.88 35.09a.6.59 79.9 0 1-.55.8h-25.52a.67.67 0 0 1-.63-.9l12.67-35q.62-.28 1.15.01"/><ellipse fill="#fff" rx="6.82" ry="5.6" transform="rotate(-75.1 661.53 -124.85)"/><rect width="33.52" height="4.46" x="-16.76" y="-2.23" fill="#fed12d" rx=".71" transform="rotate(16.4 -1714.008 2383.236)"/></svg>